<svg xmlns="http://www.w3.org/2000/svg" xmlns:xlink="http://www.w3.org/1999/xlink" width="500" zoomAndPan="magnify" viewBox="0 0 375 374.999991" height="500" preserveAspectRatio="xMidYMid meet" version="1.0"><defs><g/><clipPath id="5fb42c5a7c"><path d="M 91.0625 33.675781 L 288.695312 33.675781 L 288.695312 232 L 91.0625 232 Z M 91.0625 33.675781 " clip-rule="nonzero"/></clipPath><clipPath id="2fe57b6b7d"><path d="M 189.878906 33.675781 C 135.304688 33.675781 91.0625 77.9375 91.0625 132.539062 C 91.0625 187.140625 135.304688 231.402344 189.878906 231.402344 C 244.453125 231.402344 288.695312 187.140625 288.695312 132.539062 C 288.695312 77.9375 244.453125 33.675781 189.878906 33.675781 Z M 189.878906 33.675781 " clip-rule="nonzero"/></clipPath><clipPath id="8e9eff645f"><path d="M 91.0625 33.679688 L 287.753906 33.679688 L 287.753906 230.367188 L 91.0625 230.367188 Z M 91.0625 33.679688 " clip-rule="nonzero"/></clipPath><clipPath id="fe7e68c44e"><path d="M 189.863281 33.679688 C 135.296875 33.679688 91.0625 77.9375 91.0625 132.53125 C 91.0625 187.121094 135.296875 231.378906 189.863281 231.378906 C 244.433594 231.378906 288.667969 187.121094 288.667969 132.53125 C 288.667969 77.9375 244.433594 33.679688 189.863281 33.679688 Z M 189.863281 33.679688 " clip-rule="nonzero"/></clipPath><clipPath id="645cbb0b1e"><path d="M 220 89 L 226.21875 89 L 226.21875 109 L 220 109 Z M 220 89 " clip-rule="nonzero"/></clipPath><clipPath id="b5e88334df"><path d="M 223.199219 110.417969 L 226.21875 110.417969 L 226.21875 134.222656 L 223.199219 134.222656 Z M 223.199219 110.417969 " clip-rule="nonzero"/></clipPath><clipPath id="5ffb631c1a"><path d="M 152.984375 144 L 158 144 L 158 159 L 152.984375 159 Z M 152.984375 144 " clip-rule="nonzero"/></clipPath><clipPath id="b3b7dd3b03"><path d="M 178.523438 188.320312 L 189.566406 188.320312 L 189.566406 189.351562 L 178.523438 189.351562 Z M 178.523438 188.320312 " clip-rule="nonzero"/></clipPath></defs><path fill="#ffffff" d="M 120.804688 110.585938 C 97.050781 134.339844 95.1875 171.824219 115.214844 197.738281 C 115.191406 197.757812 115.167969 197.773438 115.144531 197.796875 C 114.59375 198.34375 114.363281 199.085938 114.429688 199.804688 C 113.710938 199.738281 112.96875 199.96875 112.417969 200.519531 C 111.601562 201.339844 111.472656 202.578125 112.019531 203.539062 L 103.210938 212.347656 C 102.25 211.800781 101.011719 211.929688 100.191406 212.75 C 99.640625 213.300781 99.410156 214.039062 99.476562 214.757812 C 98.757812 214.691406 98.015625 214.921875 97.46875 215.472656 C 97.242188 215.695312 97.078125 215.949219 96.957031 216.21875 L 96.523438 215.785156 C 95.136719 214.398438 92.882812 214.398438 91.492188 215.785156 L 1.355469 305.921875 C -0.0351562 307.3125 -0.0351562 309.566406 1.355469 310.957031 L 13.933594 323.53125 C 15.324219 324.921875 17.574219 324.921875 18.964844 323.535156 L 109.101562 233.398438 C 110.492188 232.007812 110.492188 229.753906 109.101562 228.363281 L 108.667969 227.929688 C 108.9375 227.808594 109.195312 227.644531 109.414062 227.421875 C 109.964844 226.871094 110.195312 226.132812 110.132812 225.414062 C 110.851562 225.480469 111.589844 225.246094 112.140625 224.695312 C 112.960938 223.875 113.085938 222.640625 112.542969 221.675781 L 121.347656 212.871094 C 122.308594 213.414062 123.550781 213.289062 124.371094 212.46875 C 124.917969 211.917969 125.148438 211.179688 125.085938 210.460938 C 125.804688 210.523438 126.542969 210.292969 127.09375 209.742188 C 127.117188 209.722656 127.128906 209.695312 127.152344 209.671875 C 153.0625 229.703125 190.546875 227.839844 214.304688 204.082031 C 240.082031 178.304688 240.082031 136.363281 214.304688 110.585938 C 188.527344 84.808594 146.582031 84.808594 120.804688 110.585938 Z M 211.789062 113.101562 C 236.21875 137.53125 236.21875 177.140625 211.789062 201.566406 C 187.359375 225.996094 147.75 225.996094 123.320312 201.566406 C 98.890625 177.140625 98.890625 137.53125 123.320312 113.101562 C 147.75 88.671875 187.359375 88.671875 211.789062 113.101562 Z M 211.789062 113.101562 " fill-opacity="1" fill-rule="nonzero"/><g clip-path="url(#5fb42c5a7c)"><g clip-path="url(#2fe57b6b7d)"><path fill="#1f4974" d="M 91.0625 33.675781 L 288.695312 33.675781 L 288.695312 231.3125 L 91.0625 231.3125 Z M 91.0625 33.675781 " fill-opacity="1" fill-rule="nonzero"/></g></g><g clip-path="url(#8e9eff645f)"><g clip-path="url(#fe7e68c44e)"><path stroke-linecap="butt" transform="matrix(2.092459, 0, 0, 2.092459, 91.061497, 33.68089)" fill="none" stroke-linejoin="miter" d="M 47.218034 -0.000574696 C 21.140383 -0.000574696 0.000479379 21.15053 0.000479379 47.241249 C 0.000479379 73.330101 21.140383 94.481206 47.218034 94.481206 C 73.297552 94.481206 94.437456 73.330101 94.437456 47.241249 C 94.437456 21.15053 73.297552 -0.000574696 47.218034 -0.000574696 Z M 47.218034 -0.000574696 " stroke="#ffffff" stroke-width="5.01802" stroke-opacity="1" stroke-miterlimit="4"/></g></g><path fill="#ffffff" d="M 193.339844 106.191406 C 193.179688 106.261719 193.105469 106.445312 193.175781 106.601562 C 195.460938 111.886719 195.6875 117.238281 193.871094 122.953125 C 193.816406 123.117188 193.90625 123.292969 194.074219 123.34375 C 194.105469 123.355469 194.136719 123.359375 194.167969 123.359375 C 194.300781 123.359375 194.425781 123.273438 194.464844 123.140625 C 196.335938 117.277344 196.101562 111.785156 193.75 106.355469 C 193.683594 106.195312 193.496094 106.121094 193.339844 106.191406 " fill-opacity="1" fill-rule="nonzero"/><path fill="#ffffff" d="M 184.269531 136.25 C 183.9375 136.503906 183.449219 136.820312 182.886719 137.183594 C 181.800781 137.882812 180.449219 138.753906 179.636719 139.589844 C 178.15625 141.117188 177.757812 142.496094 178.453125 143.6875 C 178.785156 144.253906 179.277344 144.625 179.917969 144.792969 C 180.1875 144.863281 180.464844 144.890625 180.746094 144.890625 C 182.226562 144.890625 183.777344 144.054688 184.277344 143.757812 C 184.425781 143.667969 184.476562 143.476562 184.386719 143.328125 C 184.300781 143.179688 184.109375 143.128906 183.957031 143.21875 C 182.835938 143.882812 181.226562 144.484375 180.074219 144.183594 C 179.59375 144.0625 179.242188 143.792969 178.992188 143.371094 C 178.457031 142.453125 178.824219 141.328125 180.085938 140.027344 C 180.851562 139.242188 182.167969 138.390625 183.226562 137.710938 C 183.800781 137.339844 184.296875 137.019531 184.652344 136.746094 C 188.8125 133.570312 191.480469 131.332031 193.753906 125.65625 C 193.816406 125.496094 193.738281 125.3125 193.578125 125.246094 C 193.417969 125.183594 193.238281 125.261719 193.171875 125.421875 C 190.960938 130.945312 188.347656 133.136719 184.269531 136.25 " fill-opacity="1" fill-rule="nonzero"/><path fill="#ffffff" d="M 186.574219 142.480469 C 186.625 142.480469 186.679688 142.464844 186.726562 142.441406 C 190.898438 140.15625 194.269531 136.464844 197.035156 131.148438 C 201.125 123.125 202.183594 114.707031 200.179688 106.109375 C 199.179688 102.941406 197.261719 99.128906 193.820312 98.964844 C 193.648438 98.957031 193.503906 99.089844 193.492188 99.261719 C 193.484375 99.4375 193.617188 99.582031 193.792969 99.589844 C 196.871094 99.738281 198.640625 103.320312 199.578125 106.273438 C 201.539062 114.703125 200.496094 122.976562 196.480469 130.859375 C 193.773438 136.058594 190.484375 139.667969 186.425781 141.890625 C 186.273438 141.972656 186.21875 142.164062 186.300781 142.316406 C 186.359375 142.417969 186.464844 142.480469 186.574219 142.480469 " fill-opacity="1" fill-rule="nonzero"/><path fill="#ffffff" d="M 191.691406 99.222656 C 188.316406 99.96875 186.976562 103.507812 187.914062 109.1875 C 187.996094 109.691406 188.078125 110.179688 188.160156 110.65625 C 188.796875 114.335938 189.296875 117.246094 188.269531 120.6875 C 188.222656 120.851562 188.316406 121.027344 188.480469 121.078125 C 188.511719 121.085938 188.542969 121.089844 188.570312 121.089844 C 188.707031 121.089844 188.832031 121 188.871094 120.867188 C 189.9375 117.285156 189.402344 114.164062 188.777344 110.550781 C 188.699219 110.074219 188.613281 109.585938 188.53125 109.085938 C 188.023438 106.015625 187.777344 100.726562 191.828125 99.832031 C 191.996094 99.796875 192.101562 99.628906 192.066406 99.460938 C 192.027344 99.289062 191.859375 99.183594 191.691406 99.222656 " fill-opacity="1" fill-rule="nonzero"/><path fill="#ffffff" d="M 180.421875 133.550781 C 183.679688 130.890625 187.054688 128.140625 188.035156 123.683594 C 188.074219 123.515625 187.96875 123.347656 187.796875 123.308594 C 187.628906 123.273438 187.460938 123.378906 187.425781 123.546875 C 186.488281 127.792969 183.347656 130.351562 180.023438 133.0625 C 178.050781 134.675781 176.007812 136.339844 174.449219 138.402344 C 172.191406 141.386719 171.824219 144.652344 173.46875 147.136719 C 173.53125 147.230469 173.628906 147.277344 173.730469 147.277344 C 173.789062 147.277344 173.851562 147.261719 173.902344 147.226562 C 174.046875 147.128906 174.089844 146.9375 173.992188 146.792969 C 171.839844 143.542969 173.945312 140.105469 174.949219 138.777344 C 176.460938 136.78125 178.472656 135.136719 180.421875 133.550781 " fill-opacity="1" fill-rule="nonzero"/><path fill="#ffffff" d="M 186.019531 149.644531 C 192.597656 146.570312 196.945312 142.5 201.035156 135.589844 C 204.597656 129.570312 206.625 122.480469 206.742188 115.625 C 206.746094 115.449219 206.609375 115.308594 206.433594 115.304688 C 206.261719 115.308594 206.117188 115.441406 206.117188 115.613281 C 206 122.363281 204.003906 129.34375 200.496094 135.269531 C 196.476562 142.058594 192.207031 146.0625 185.753906 149.078125 C 182.496094 150.601562 177.894531 150.179688 175.28125 148.113281 C 175.144531 148.007812 174.949219 148.03125 174.839844 148.167969 C 174.734375 148.300781 174.757812 148.5 174.894531 148.605469 C 176.554688 149.917969 178.96875 150.609375 181.378906 150.609375 C 183.003906 150.609375 184.628906 150.296875 186.019531 149.644531 " fill-opacity="1" fill-rule="nonzero"/><path fill="#ffffff" d="M 206.300781 112.855469 C 206.304688 112.855469 206.304688 112.855469 206.308594 112.855469 C 206.476562 112.855469 206.617188 112.714844 206.621094 112.542969 C 206.691406 107.074219 205.058594 101.789062 202.148438 98.039062 C 202.042969 97.902344 201.847656 97.878906 201.707031 97.984375 C 201.570312 98.089844 201.546875 98.285156 201.652344 98.421875 C 204.480469 102.0625 206.0625 107.207031 205.992188 112.535156 C 205.992188 112.710938 206.128906 112.851562 206.300781 112.855469 " fill-opacity="1" fill-rule="nonzero"/><path fill="#ffffff" d="M 172.921875 154.167969 C 172.972656 154.195312 173.027344 154.210938 173.078125 154.210938 C 173.1875 154.210938 173.292969 154.152344 173.351562 154.054688 C 173.4375 153.90625 173.386719 153.714844 173.238281 153.625 C 169.003906 151.140625 166.914062 145.570312 168.261719 140.378906 C 169.226562 136.675781 171.902344 134.492188 174.734375 132.183594 C 176.195312 130.996094 177.703125 129.765625 178.945312 128.3125 C 181.214844 125.660156 182.65625 122.683594 183.113281 119.710938 C 183.425781 117.6875 183.21875 115.597656 183.015625 113.578125 C 182.945312 112.890625 182.875 112.175781 182.828125 111.480469 C 182.78125 110.851562 182.726562 110.207031 182.667969 109.554688 C 182.289062 105.171875 181.859375 100.210938 184.996094 96.867188 C 188.925781 92.683594 195.253906 92.464844 199.710938 96.359375 C 199.839844 96.472656 200.039062 96.460938 200.152344 96.328125 C 200.265625 96.199219 200.253906 96 200.125 95.886719 C 195.40625 91.765625 188.707031 92.003906 184.539062 96.4375 C 181.210938 99.984375 181.652344 105.097656 182.042969 109.605469 C 182.101562 110.257812 182.15625 110.898438 182.199219 111.523438 C 182.25 112.230469 182.320312 112.945312 182.390625 113.640625 C 182.589844 115.621094 182.796875 117.667969 182.496094 119.617188 C 182.054688 122.472656 180.660156 125.339844 178.46875 127.90625 C 177.265625 129.3125 175.777344 130.527344 174.339844 131.699219 C 171.550781 133.96875 168.667969 136.320312 167.65625 140.222656 C 166.238281 145.675781 168.453125 151.542969 172.921875 154.167969 " fill-opacity="1" fill-rule="nonzero"/><path fill="#ffffff" d="M 207.652344 134.964844 C 211.480469 126.769531 213.042969 117.21875 212.058594 108.078125 C 212.042969 107.90625 211.894531 107.78125 211.714844 107.800781 C 211.542969 107.816406 211.417969 107.972656 211.4375 108.144531 C 212.410156 117.175781 210.863281 126.605469 207.085938 134.699219 C 203.125 143.183594 196.578125 149.992188 189.125 153.378906 C 184.390625 155.53125 179.609375 156.003906 175.660156 154.710938 C 175.496094 154.65625 175.316406 154.746094 175.265625 154.910156 C 175.210938 155.078125 175.300781 155.253906 175.464844 155.308594 C 176.988281 155.804688 178.625 156.050781 180.332031 156.050781 C 183.226562 156.050781 186.320312 155.34375 189.386719 153.949219 C 196.972656 150.5 203.632812 143.582031 207.652344 134.964844 " fill-opacity="1" fill-rule="nonzero"/><path fill="#ffffff" d="M 211.234375 105.671875 C 211.257812 105.671875 211.28125 105.671875 211.304688 105.664062 C 211.472656 105.625 211.578125 105.457031 211.542969 105.289062 C 210.707031 101.652344 209.28125 98.242188 207.304688 95.152344 C 207.210938 95.007812 207.015625 94.964844 206.871094 95.058594 C 206.726562 95.152344 206.683594 95.34375 206.777344 95.488281 C 208.714844 98.519531 210.109375 101.863281 210.929688 105.429688 C 210.964844 105.574219 211.09375 105.671875 211.234375 105.671875 " fill-opacity="1" fill-rule="nonzero"/><path fill="#ffffff" d="M 176.972656 100.085938 C 176.933594 100.253906 177.039062 100.425781 177.207031 100.464844 C 177.230469 100.46875 177.253906 100.472656 177.277344 100.472656 C 177.421875 100.472656 177.546875 100.375 177.582031 100.230469 C 178.613281 95.824219 181.234375 92.230469 184.964844 90.109375 C 188.824219 87.914062 193.539062 87.445312 197.894531 88.828125 C 200.554688 89.667969 202.964844 91.222656 204.875 93.316406 C 204.992188 93.445312 205.1875 93.453125 205.316406 93.335938 C 205.445312 93.21875 205.453125 93.023438 205.335938 92.894531 C 203.355469 90.71875 200.847656 89.105469 198.085938 88.230469 C 193.558594 86.796875 188.664062 87.285156 184.652344 89.566406 C 180.769531 91.773438 178.042969 95.511719 176.972656 100.085938 " fill-opacity="1" fill-rule="nonzero"/><path fill="#ffffff" d="M 176.773438 102.328125 C 176.601562 102.3125 176.453125 102.449219 176.441406 102.621094 C 176.277344 105.066406 176.507812 107.574219 176.726562 110 C 176.890625 111.765625 177.054688 113.597656 177.066406 115.367188 C 177.066406 115.539062 177.207031 115.675781 177.378906 115.675781 C 177.554688 115.675781 177.691406 115.535156 177.691406 115.363281 C 177.683594 113.566406 177.515625 111.722656 177.351562 109.941406 C 177.132812 107.542969 176.90625 105.058594 177.066406 102.664062 C 177.078125 102.492188 176.945312 102.339844 176.773438 102.328125 " fill-opacity="1" fill-rule="nonzero"/><path fill="#ffffff" d="M 168.738281 129.296875 C 168.117188 129.808594 167.476562 130.339844 166.859375 130.875 C 166.730469 130.988281 166.714844 131.1875 166.828125 131.316406 C 166.890625 131.386719 166.976562 131.425781 167.066406 131.425781 C 167.136719 131.425781 167.210938 131.398438 167.269531 131.347656 C 167.878906 130.820312 168.519531 130.289062 169.140625 129.777344 C 172.804688 126.742188 176.597656 123.597656 177.46875 118.34375 C 177.496094 118.171875 177.382812 118.011719 177.210938 117.984375 C 177.039062 117.953125 176.878906 118.070312 176.851562 118.242188 C 176.015625 123.265625 172.316406 126.332031 168.738281 129.296875 " fill-opacity="1" fill-rule="nonzero"/><path fill="#ffffff" d="M 190.878906 159.773438 C 191.039062 159.707031 191.117188 159.527344 191.050781 159.363281 C 190.988281 159.203125 190.804688 159.128906 190.644531 159.191406 C 186.285156 160.945312 177.898438 163.304688 170.742188 159.410156 C 165.480469 156.550781 162.003906 150.085938 162.09375 143.328125 C 162.140625 139.769531 163.257812 136.324219 165.238281 133.621094 C 165.339844 133.480469 165.3125 133.285156 165.171875 133.183594 C 165.03125 133.082031 164.835938 133.109375 164.734375 133.25 C 162.675781 136.058594 161.515625 139.632812 161.46875 143.320312 C 161.375 150.304688 164.980469 156.992188 170.441406 159.960938 C 173.398438 161.570312 176.546875 162.144531 179.542969 162.144531 C 184.039062 162.144531 188.203125 160.847656 190.878906 159.773438 " fill-opacity="1" fill-rule="nonzero"/><path fill="#ffffff" d="M 206.15625 146.984375 C 202.554688 151.242188 198.121094 154.964844 192.980469 158.058594 C 192.832031 158.148438 192.78125 158.339844 192.871094 158.488281 C 192.929688 158.585938 193.035156 158.640625 193.140625 158.640625 C 193.195312 158.640625 193.25 158.625 193.300781 158.597656 C 198.503906 155.46875 202.988281 151.699219 206.632812 147.390625 C 206.746094 147.257812 206.730469 147.058594 206.597656 146.949219 C 206.464844 146.835938 206.269531 146.851562 206.15625 146.984375 " fill-opacity="1" fill-rule="nonzero"/><path fill="#ffffff" d="M 213.609375 134.058594 C 212.339844 137.792969 210.417969 141.398438 207.902344 144.78125 C 207.800781 144.921875 207.828125 145.117188 207.96875 145.222656 C 208.023438 145.261719 208.089844 145.28125 208.15625 145.28125 C 208.25 145.28125 208.34375 145.238281 208.40625 145.15625 C 210.960938 141.71875 212.910156 138.054688 214.203125 134.261719 C 214.257812 134.097656 214.171875 133.917969 214.007812 133.863281 C 213.84375 133.808594 213.664062 133.894531 213.609375 134.058594 " fill-opacity="1" fill-rule="nonzero"/><path fill="#ffffff" d="M 214.796875 131.808594 C 214.828125 131.820312 214.863281 131.824219 214.894531 131.824219 C 215.027344 131.824219 215.148438 131.742188 215.191406 131.613281 C 218.289062 122.390625 218.566406 111.859375 215.988281 101.148438 C 215.945312 100.980469 215.777344 100.878906 215.609375 100.917969 C 215.441406 100.957031 215.335938 101.128906 215.378906 101.296875 C 217.929688 111.890625 217.660156 122.304688 214.597656 131.414062 C 214.542969 131.578125 214.632812 131.753906 214.796875 131.808594 " fill-opacity="1" fill-rule="nonzero"/><path fill="#ffffff" d="M 206.464844 86.75 C 202.527344 83.652344 197.933594 82.015625 193.175781 82.015625 C 193.160156 82.015625 193.148438 82.015625 193.132812 82.015625 C 192.957031 82.019531 192.820312 82.160156 192.820312 82.332031 C 192.820312 82.503906 192.960938 82.644531 193.132812 82.644531 C 193.144531 82.640625 193.160156 82.644531 193.175781 82.644531 C 202.308594 82.644531 210.796875 89.136719 214.3125 98.8125 C 214.355469 98.941406 214.476562 99.019531 214.605469 99.019531 C 214.640625 99.019531 214.675781 99.015625 214.710938 99 C 214.875 98.941406 214.957031 98.761719 214.898438 98.601562 C 213.167969 93.824219 210.25 89.726562 206.464844 86.75 " fill-opacity="1" fill-rule="nonzero"/><path fill="#ffffff" d="M 171.347656 103.136719 C 171.351562 103.136719 171.359375 103.136719 171.367188 103.136719 C 171.53125 103.136719 171.667969 103.011719 171.679688 102.84375 C 172.292969 93.539062 180.226562 83.019531 190.628906 82.800781 C 190.800781 82.796875 190.9375 82.652344 190.933594 82.480469 C 190.929688 82.308594 190.785156 82.175781 190.613281 82.171875 C 185.746094 82.277344 180.988281 84.613281 177.210938 88.757812 C 173.628906 92.691406 171.382812 97.8125 171.054688 102.804688 C 171.042969 102.976562 171.171875 103.125 171.347656 103.136719 " fill-opacity="1" fill-rule="nonzero"/><path fill="#ffffff" d="M 165.101562 127.066406 C 167.703125 124.375 170.394531 121.59375 171.515625 117.773438 C 172.328125 115.011719 172.085938 111.976562 171.855469 109.042969 C 171.757812 107.832031 171.667969 106.6875 171.644531 105.558594 C 171.640625 105.386719 171.5 105.25 171.324219 105.253906 C 171.152344 105.257812 171.015625 105.398438 171.019531 105.570312 C 171.039062 106.71875 171.136719 107.925781 171.230469 109.09375 C 171.457031 111.96875 171.695312 114.945312 170.914062 117.597656 C 169.835938 121.269531 167.199219 123.996094 164.652344 126.632812 C 163.027344 128.308594 161.351562 130.046875 160.070312 132.019531 C 155.839844 138.539062 154.847656 145.878906 157.417969 151.660156 C 157.472656 151.773438 157.585938 151.84375 157.707031 151.84375 C 157.75 151.84375 157.792969 151.835938 157.832031 151.816406 C 157.992188 151.746094 158.0625 151.5625 157.992188 151.402344 C 155.507812 145.820312 156.480469 138.699219 160.59375 132.359375 C 161.84375 130.4375 163.5 128.722656 165.101562 127.066406 " fill-opacity="1" fill-rule="nonzero"/><path fill="#ffffff" d="M 175.121094 167.632812 C 175.140625 167.636719 175.160156 167.636719 175.183594 167.636719 C 175.328125 167.636719 175.457031 167.535156 175.488281 167.386719 C 175.523438 167.21875 175.414062 167.050781 175.246094 167.019531 C 168.621094 165.664062 162.457031 160.722656 159.152344 154.121094 C 159.074219 153.964844 158.886719 153.902344 158.730469 153.980469 C 158.578125 154.058594 158.515625 154.246094 158.59375 154.402344 C 161.980469 161.171875 168.3125 166.242188 175.121094 167.632812 " fill-opacity="1" fill-rule="nonzero"/><path fill="#ffffff" d="M 178.035156 168.046875 C 178.824219 168.113281 179.621094 168.144531 180.421875 168.144531 C 185.488281 168.144531 190.78125 166.847656 195.554688 164.40625 C 195.710938 164.324219 195.769531 164.136719 195.691406 163.984375 C 195.613281 163.828125 195.425781 163.769531 195.269531 163.847656 C 189.839844 166.625 183.738281 167.894531 178.085938 167.421875 C 177.914062 167.402344 177.761719 167.535156 177.746094 167.707031 C 177.734375 167.882812 177.859375 168.03125 178.035156 168.046875 " fill-opacity="1" fill-rule="nonzero"/><path fill="#ffffff" d="M 200.40625 160.597656 C 199.585938 161.242188 198.484375 161.949219 197.296875 162.582031 C 197.144531 162.664062 197.085938 162.851562 197.167969 163.007812 C 197.226562 163.113281 197.332031 163.171875 197.445312 163.171875 C 197.496094 163.171875 197.546875 163.160156 197.59375 163.136719 C 198.8125 162.484375 199.949219 161.757812 200.792969 161.085938 C 200.929688 160.980469 200.953125 160.785156 200.84375 160.648438 C 200.738281 160.511719 200.542969 160.488281 200.40625 160.597656 " fill-opacity="1" fill-rule="nonzero"/><path fill="#ffffff" d="M 202.78125 159.527344 C 202.847656 159.527344 202.914062 159.503906 202.972656 159.464844 C 212.078125 152.566406 218.804688 141.875 221.910156 129.359375 C 221.949219 129.191406 221.847656 129.019531 221.679688 128.976562 C 221.511719 128.9375 221.34375 129.039062 221.300781 129.207031 C 218.230469 141.585938 211.585938 152.152344 202.59375 158.964844 C 202.453125 159.066406 202.425781 159.265625 202.53125 159.402344 C 202.59375 159.484375 202.6875 159.527344 202.78125 159.527344 " fill-opacity="1" fill-rule="nonzero"/><path fill="#ffffff" d="M 222.976562 118.535156 C 222.800781 118.523438 222.65625 118.652344 222.644531 118.828125 C 222.480469 121.121094 222.222656 123.59375 221.859375 126.386719 C 221.835938 126.558594 221.957031 126.714844 222.128906 126.738281 C 222.140625 126.738281 222.15625 126.742188 222.167969 126.742188 C 222.324219 126.742188 222.457031 126.625 222.476562 126.46875 C 222.84375 123.664062 223.105469 121.179688 223.269531 118.871094 C 223.28125 118.699219 223.152344 118.546875 222.976562 118.535156 " fill-opacity="1" fill-rule="nonzero"/><path fill="#ffffff" d="M 223.105469 116.265625 C 223.109375 116.265625 223.113281 116.265625 223.117188 116.265625 C 223.285156 116.265625 223.425781 116.132812 223.429688 115.964844 C 223.574219 112.324219 223.464844 109.046875 223.097656 105.945312 C 221.675781 93.847656 215.914062 84.339844 206.878906 79.175781 C 206.730469 79.089844 206.539062 79.140625 206.453125 79.292969 C 206.367188 79.441406 206.417969 79.632812 206.570312 79.71875 C 215.425781 84.78125 221.074219 94.121094 222.476562 106.019531 C 222.839844 109.085938 222.945312 112.332031 222.804688 115.941406 C 222.796875 116.113281 222.933594 116.257812 223.105469 116.265625 " fill-opacity="1" fill-rule="nonzero"/><path fill="#ffffff" d="M 165.511719 106.496094 C 165.632812 111.351562 165.472656 116.402344 162.132812 120.171875 C 162.015625 120.300781 162.03125 120.5 162.160156 120.613281 C 162.21875 120.667969 162.292969 120.691406 162.367188 120.691406 C 162.453125 120.691406 162.539062 120.65625 162.601562 120.585938 C 166.09375 116.648438 166.257812 111.242188 166.136719 106.480469 C 166.015625 101.707031 166.082031 96.640625 168.285156 91.777344 C 171.628906 84.394531 178.585938 78.800781 186.894531 76.8125 C 192.585938 75.445312 198.695312 76.03125 204.089844 78.457031 C 204.246094 78.527344 204.433594 78.457031 204.503906 78.296875 C 204.574219 78.140625 204.503906 77.957031 204.347656 77.882812 C 198.824219 75.402344 192.574219 74.804688 186.746094 76.199219 C 178.25 78.234375 171.136719 83.960938 167.714844 91.519531 C 165.457031 96.503906 165.386719 101.652344 165.511719 106.496094 " fill-opacity="1" fill-rule="nonzero"/><path fill="#ffffff" d="M 155.753906 126.738281 C 155.8125 126.738281 155.875 126.722656 155.925781 126.6875 C 157.28125 125.789062 158.476562 124.648438 159.628906 123.542969 C 160.003906 123.183594 160.378906 122.824219 160.757812 122.472656 C 160.886719 122.355469 160.894531 122.15625 160.777344 122.03125 C 160.660156 121.902344 160.460938 121.894531 160.335938 122.011719 C 159.949219 122.367188 159.574219 122.726562 159.195312 123.089844 C 158.0625 124.175781 156.890625 125.300781 155.582031 126.164062 C 155.4375 126.257812 155.398438 126.453125 155.492188 126.597656 C 155.554688 126.6875 155.652344 126.738281 155.753906 126.738281 " fill-opacity="1" fill-rule="nonzero"/><path fill="#ffffff" d="M 156.828125 121.710938 C 156.875 121.710938 156.925781 121.699219 156.972656 121.675781 C 159.023438 120.589844 160.621094 118.71875 161.472656 116.40625 C 161.53125 116.242188 161.449219 116.0625 161.285156 116.003906 C 161.125 115.945312 160.941406 116.027344 160.882812 116.191406 C 160.085938 118.355469 158.59375 120.109375 156.679688 121.121094 C 156.527344 121.203125 156.46875 121.390625 156.550781 121.542969 C 156.605469 121.648438 156.714844 121.710938 156.828125 121.710938 " fill-opacity="1" fill-rule="nonzero"/><path fill="#ffffff" d="M 161.859375 113.789062 C 161.875 113.792969 161.894531 113.792969 161.914062 113.792969 C 162.0625 113.792969 162.195312 113.6875 162.222656 113.535156 C 162.640625 111.117188 162.660156 108.644531 162.679688 106.253906 C 162.691406 104.632812 162.707031 102.960938 162.84375 101.332031 C 162.859375 101.160156 162.730469 101.007812 162.558594 100.992188 C 162.386719 100.976562 162.234375 101.105469 162.222656 101.277344 C 162.082031 102.933594 162.066406 104.617188 162.054688 106.246094 C 162.035156 108.613281 162.011719 111.0625 161.601562 113.425781 C 161.574219 113.597656 161.6875 113.761719 161.859375 113.789062 " fill-opacity="1" fill-rule="nonzero"/><path fill="#ffffff" d="M 162.796875 98.90625 C 162.8125 98.90625 162.828125 98.910156 162.84375 98.910156 C 162.996094 98.910156 163.128906 98.796875 163.152344 98.640625 C 163.796875 94.230469 165.195312 90.4375 167.3125 87.375 C 167.410156 87.234375 167.375 87.039062 167.230469 86.941406 C 167.089844 86.839844 166.894531 86.875 166.796875 87.019531 C 164.625 90.164062 163.191406 94.042969 162.53125 98.550781 C 162.507812 98.722656 162.625 98.878906 162.796875 98.90625 " fill-opacity="1" fill-rule="nonzero"/><path fill="#ffffff" d="M 168.636719 85.246094 C 168.730469 85.246094 168.824219 85.203125 168.886719 85.121094 C 175.53125 76.429688 186.03125 71.621094 196.289062 72.566406 C 196.464844 72.582031 196.613281 72.453125 196.628906 72.28125 C 196.644531 72.109375 196.519531 71.957031 196.347656 71.941406 C 185.875 70.972656 175.164062 75.878906 168.386719 84.742188 C 168.285156 84.878906 168.308594 85.074219 168.445312 85.179688 C 168.503906 85.222656 168.570312 85.246094 168.636719 85.246094 " fill-opacity="1" fill-rule="nonzero"/><path fill="#ffffff" d="M 199.050781 72.960938 C 207.109375 74.539062 214.441406 79.792969 219.160156 87.382812 C 219.222656 87.480469 219.324219 87.53125 219.429688 87.53125 C 219.484375 87.53125 219.542969 87.515625 219.59375 87.484375 C 219.742188 87.390625 219.785156 87.199219 219.695312 87.054688 C 214.882812 79.316406 207.402344 73.957031 199.171875 72.347656 C 199 72.3125 198.835938 72.421875 198.804688 72.59375 C 198.769531 72.761719 198.882812 72.925781 199.050781 72.960938 " fill-opacity="1" fill-rule="nonzero"/><g clip-path="url(#645cbb0b1e)"><path fill="#ffffff" d="M 225.875 108.023438 C 225.894531 108.183594 226.027344 108.304688 226.1875 108.304688 C 226.199219 108.304688 226.210938 108.304688 226.21875 108.304688 C 226.390625 108.285156 226.519531 108.132812 226.5 107.960938 C 225.820312 101.238281 224.03125 95.078125 221.179688 89.652344 C 221.101562 89.5 220.914062 89.441406 220.757812 89.519531 C 220.605469 89.601562 220.546875 89.789062 220.625 89.945312 C 223.441406 95.300781 225.207031 101.382812 225.875 108.023438 " fill-opacity="1" fill-rule="nonzero"/></g><g clip-path="url(#b5e88334df)"><path fill="#ffffff" d="M 226.085938 110.808594 C 226.3125 119.429688 225.382812 126.941406 223.246094 133.777344 C 223.195312 133.945312 223.289062 134.121094 223.453125 134.171875 C 223.484375 134.179688 223.515625 134.1875 223.546875 134.1875 C 223.679688 134.1875 223.804688 134.101562 223.84375 133.964844 C 226 127.0625 226.941406 119.480469 226.714844 110.792969 C 226.710938 110.621094 226.5625 110.476562 226.390625 110.488281 C 226.21875 110.492188 226.082031 110.636719 226.085938 110.808594 " fill-opacity="1" fill-rule="nonzero"/></g><path fill="#ffffff" d="M 222.746094 136.28125 C 222.582031 136.222656 222.402344 136.308594 222.34375 136.46875 C 219.851562 143.429688 215.800781 150.132812 209.960938 156.96875 C 209.847656 157.101562 209.863281 157.300781 209.992188 157.410156 C 210.054688 157.460938 210.125 157.488281 210.195312 157.488281 C 210.285156 157.488281 210.375 157.449219 210.4375 157.378906 C 216.328125 150.484375 220.414062 143.714844 222.933594 136.679688 C 222.992188 136.519531 222.90625 136.339844 222.746094 136.28125 " fill-opacity="1" fill-rule="nonzero"/><path fill="#ffffff" d="M 208.511719 159.199219 C 208.636719 159.082031 208.640625 158.882812 208.523438 158.757812 C 208.402344 158.632812 208.207031 158.625 208.082031 158.746094 C 204.691406 161.945312 201.863281 164.332031 198.25 166.328125 C 186.457031 172.839844 169.007812 173.089844 160.226562 162.230469 C 160.121094 162.097656 159.921875 162.074219 159.789062 162.183594 C 159.652344 162.292969 159.632812 162.488281 159.742188 162.625 C 164.753906 168.820312 172.503906 171.492188 180.46875 171.492188 C 186.785156 171.492188 193.238281 169.8125 198.554688 166.875 C 202.210938 164.855469 205.179688 162.347656 208.511719 159.199219 " fill-opacity="1" fill-rule="nonzero"/><g clip-path="url(#5ffb631c1a)"><path fill="#ffffff" d="M 157.191406 158.847656 C 157.25 158.847656 157.308594 158.832031 157.359375 158.800781 C 157.507812 158.707031 157.550781 158.511719 157.457031 158.367188 C 155.179688 154.78125 153.851562 150.25 153.621094 145.261719 C 153.613281 145.089844 153.460938 144.953125 153.292969 144.964844 C 153.121094 144.972656 152.988281 145.117188 152.996094 145.289062 C 153.230469 150.386719 154.59375 155.027344 156.929688 158.703125 C 156.988281 158.796875 157.089844 158.847656 157.191406 158.847656 " fill-opacity="1" fill-rule="nonzero"/></g><path fill="#ffffff" d="M 154.609375 137.671875 C 154.644531 137.683594 154.679688 137.691406 154.714844 137.691406 C 154.84375 137.691406 154.964844 137.609375 155.007812 137.480469 C 156.921875 132.101562 160.042969 127.605469 164.289062 124.117188 C 164.425781 124.007812 164.445312 123.808594 164.335938 123.675781 C 164.226562 123.542969 164.027344 123.523438 163.894531 123.632812 C 159.558594 127.191406 156.371094 131.78125 154.417969 137.273438 C 154.359375 137.433594 154.445312 137.613281 154.609375 137.671875 " fill-opacity="1" fill-rule="nonzero"/><path fill="#ffffff" d="M 165.863281 121.9375 C 165.921875 121.988281 165.992188 122.011719 166.0625 122.011719 C 166.152344 122.011719 166.242188 121.972656 166.304688 121.898438 C 169.480469 118.097656 169.132812 113.269531 168.796875 108.597656 C 168.632812 106.316406 168.464844 103.957031 168.730469 101.800781 C 168.75 101.628906 168.628906 101.472656 168.457031 101.449219 C 168.289062 101.429688 168.128906 101.550781 168.109375 101.722656 C 167.835938 103.941406 168.007812 106.332031 168.171875 108.640625 C 168.5 113.1875 168.835938 117.890625 165.824219 121.496094 C 165.710938 121.628906 165.730469 121.828125 165.863281 121.9375 " fill-opacity="1" fill-rule="nonzero"/><path fill="#ffffff" d="M 172.179688 89.242188 C 170.210938 92.023438 168.90625 95.277344 168.410156 98.660156 C 168.386719 98.828125 168.503906 98.988281 168.675781 99.015625 C 168.691406 99.015625 168.707031 99.015625 168.71875 99.015625 C 168.875 99.015625 169.007812 98.90625 169.03125 98.75 C 169.511719 95.46875 170.777344 92.304688 172.691406 89.605469 C 172.792969 89.464844 172.757812 89.269531 172.617188 89.167969 C 172.476562 89.070312 172.28125 89.101562 172.179688 89.242188 " fill-opacity="1" fill-rule="nonzero"/><path fill="#ffffff" d="M 174.503906 87.378906 C 177.386719 84.265625 181.167969 81.9375 185.441406 80.636719 C 185.605469 80.585938 185.699219 80.410156 185.652344 80.246094 C 185.601562 80.078125 185.425781 79.984375 185.257812 80.035156 C 180.882812 81.367188 177.003906 83.761719 174.042969 86.953125 C 173.925781 87.078125 173.933594 87.277344 174.058594 87.394531 C 174.121094 87.453125 174.195312 87.480469 174.273438 87.480469 C 174.359375 87.480469 174.441406 87.445312 174.503906 87.378906 " fill-opacity="1" fill-rule="nonzero"/><path fill="#ffffff" d="M 187.964844 79.304688 C 187.792969 79.34375 187.6875 79.507812 187.722656 79.679688 C 187.757812 79.847656 187.925781 79.953125 188.09375 79.917969 C 195.796875 78.273438 203.617188 80.386719 209.011719 85.578125 C 209.074219 85.636719 209.152344 85.664062 209.230469 85.664062 C 209.3125 85.664062 209.394531 85.632812 209.453125 85.566406 C 209.574219 85.445312 209.570312 85.246094 209.445312 85.125 C 203.902344 79.792969 195.871094 77.617188 187.964844 79.304688 " fill-opacity="1" fill-rule="nonzero"/><path fill="#ffffff" d="M 216.914062 95.59375 C 215.398438 92.570312 213.679688 89.144531 211.355469 86.949219 C 211.230469 86.832031 211.03125 86.835938 210.914062 86.964844 C 210.792969 87.089844 210.800781 87.289062 210.925781 87.40625 C 213.167969 89.523438 214.859375 92.898438 216.355469 95.875 C 216.523438 96.210938 216.6875 96.542969 216.851562 96.863281 C 216.90625 96.96875 217.015625 97.03125 217.128906 97.03125 C 217.179688 97.03125 217.226562 97.023438 217.269531 97 C 217.425781 96.921875 217.488281 96.734375 217.410156 96.578125 C 217.246094 96.257812 217.082031 95.929688 216.914062 95.59375 " fill-opacity="1" fill-rule="nonzero"/><path fill="#ffffff" d="M 202.253906 155.960938 C 204.367188 154.121094 208.757812 150.292969 211.3125 146.304688 C 213.933594 142.207031 216.410156 138.171875 217.910156 133.863281 C 219.726562 128.652344 220.257812 122.765625 220.539062 117.695312 C 220.933594 110.605469 220.214844 104.539062 218.34375 99.152344 C 218.289062 98.988281 218.109375 98.902344 217.945312 98.957031 C 217.78125 99.015625 217.695312 99.195312 217.753906 99.355469 C 219.59375 104.667969 220.300781 110.65625 219.914062 117.664062 C 219.632812 122.6875 219.109375 128.519531 217.320312 133.65625 C 215.839844 137.898438 213.382812 141.902344 210.785156 145.964844 C 208.28125 149.878906 203.933594 153.667969 201.84375 155.488281 C 201.554688 155.738281 201.308594 155.953125 201.125 156.117188 C 197.042969 159.78125 191.757812 161.972656 188.042969 163.167969 C 187.878906 163.222656 187.785156 163.398438 187.839844 163.5625 C 187.882812 163.695312 188.003906 163.78125 188.136719 163.78125 C 188.167969 163.78125 188.203125 163.777344 188.234375 163.765625 C 192.007812 162.550781 197.378906 160.320312 201.542969 156.582031 C 201.726562 156.417969 201.96875 156.210938 202.253906 155.960938 " fill-opacity="1" fill-rule="nonzero"/><path fill="#ffffff" d="M 175.117188 164.503906 C 176.78125 164.886719 178.507812 165.074219 180.253906 165.074219 C 182.046875 165.074219 183.855469 164.875 185.636719 164.476562 C 185.804688 164.4375 185.910156 164.269531 185.871094 164.101562 C 185.835938 163.933594 185.667969 163.824219 185.5 163.863281 C 182.074219 164.632812 178.535156 164.640625 175.257812 163.894531 C 175.089844 163.855469 174.921875 163.960938 174.882812 164.128906 C 174.84375 164.296875 174.949219 164.46875 175.117188 164.503906 " fill-opacity="1" fill-rule="nonzero"/><path fill="#ffffff" d="M 170.050781 161.953125 C 169.894531 161.871094 169.707031 161.929688 169.625 162.082031 C 169.542969 162.234375 169.601562 162.421875 169.753906 162.503906 C 170.597656 162.953125 171.480469 163.351562 172.386719 163.6875 C 172.421875 163.703125 172.457031 163.707031 172.496094 163.707031 C 172.621094 163.707031 172.742188 163.628906 172.789062 163.503906 C 172.847656 163.34375 172.765625 163.164062 172.605469 163.101562 C 171.726562 162.773438 170.867188 162.386719 170.050781 161.953125 " fill-opacity="1" fill-rule="nonzero"/><path fill="#ffffff" d="M 162.769531 132.941406 C 162.628906 132.84375 162.433594 132.875 162.332031 133.019531 C 159.496094 137.039062 158.441406 142.511719 159.441406 148.023438 C 160.4375 153.527344 163.304688 158.246094 167.300781 160.964844 C 167.351562 161.003906 167.414062 161.019531 167.476562 161.019531 C 167.574219 161.019531 167.671875 160.972656 167.734375 160.882812 C 167.832031 160.742188 167.796875 160.546875 167.652344 160.449219 C 163.792969 157.820312 161.027344 153.25 160.058594 147.910156 C 159.089844 142.5625 160.105469 137.265625 162.847656 133.378906 C 162.945312 133.238281 162.910156 133.042969 162.769531 132.941406 " fill-opacity="1" fill-rule="nonzero"/><path fill="#ffffff" d="M 168.28125 126.164062 C 166.871094 127.527344 165.414062 128.941406 164.164062 130.519531 C 164.058594 130.65625 164.082031 130.851562 164.214844 130.960938 C 164.273438 131.003906 164.34375 131.027344 164.410156 131.027344 C 164.503906 131.027344 164.59375 130.988281 164.65625 130.90625 C 165.878906 129.363281 167.320312 127.964844 168.71875 126.613281 C 170.332031 125.046875 172.003906 123.425781 173.367188 121.554688 C 175.480469 118.644531 175.414062 115.261719 175.027344 112.035156 C 174.621094 108.640625 174.292969 105.320312 174.714844 101.988281 C 175.597656 95.023438 179.753906 89.359375 185.832031 86.839844 C 185.992188 86.773438 186.066406 86.589844 186 86.429688 C 185.9375 86.269531 185.753906 86.195312 185.59375 86.261719 C 179.304688 88.867188 175.003906 94.71875 174.09375 101.910156 C 173.664062 105.3125 173.996094 108.675781 174.40625 112.109375 C 174.777344 115.207031 174.84375 118.453125 172.859375 121.183594 C 171.53125 123.015625 169.878906 124.613281 168.28125 126.164062 " fill-opacity="1" fill-rule="nonzero"/><path fill="#ffffff" d="M 188.28125 85.375 C 188.113281 85.417969 188.011719 85.585938 188.050781 85.753906 C 188.09375 85.921875 188.265625 86.023438 188.429688 85.984375 C 192.035156 85.085938 195.859375 85.324219 199.480469 86.660156 C 211.105469 90.957031 214.601562 104.859375 214.0625 115.453125 C 214.054688 115.628906 214.1875 115.773438 214.359375 115.785156 C 214.363281 115.785156 214.371094 115.785156 214.375 115.785156 C 214.539062 115.785156 214.679688 115.652344 214.6875 115.488281 C 215.238281 104.675781 211.644531 90.488281 199.699219 86.074219 C 195.957031 84.691406 192.007812 84.449219 188.28125 85.375 " fill-opacity="1" fill-rule="nonzero"/><path fill="#ffffff" d="M 214.285156 117.976562 C 214.113281 117.976562 213.972656 118.117188 213.972656 118.289062 C 213.890625 133.757812 204.464844 148.554688 189.957031 155.984375 C 189.800781 156.066406 189.742188 156.253906 189.820312 156.40625 C 189.875 156.515625 189.984375 156.578125 190.097656 156.578125 C 190.148438 156.578125 190.195312 156.566406 190.242188 156.542969 C 204.957031 149.007812 214.515625 133.992188 214.597656 118.292969 C 214.597656 118.121094 214.460938 117.980469 214.285156 117.976562 " fill-opacity="1" fill-rule="nonzero"/><path fill="#ffffff" d="M 180.074219 159.027344 C 182.65625 159.027344 185.238281 158.539062 187.542969 157.695312 C 187.707031 157.636719 187.789062 157.457031 187.730469 157.292969 C 187.671875 157.132812 187.492188 157.046875 187.328125 157.105469 C 181.023438 159.410156 172.617188 159.003906 168.042969 152.90625 C 167.941406 152.765625 167.742188 152.738281 167.605469 152.84375 C 167.464844 152.945312 167.4375 153.140625 167.542969 153.28125 C 170.625 157.390625 175.355469 159.027344 180.074219 159.027344 " fill-opacity="1" fill-rule="nonzero"/><path fill="#ffffff" d="M 166.3125 137.601562 C 166.15625 137.53125 165.972656 137.605469 165.902344 137.761719 C 164.097656 141.835938 164.15625 146.703125 166.054688 150.785156 C 166.105469 150.902344 166.21875 150.96875 166.335938 150.96875 C 166.382812 150.96875 166.425781 150.957031 166.46875 150.9375 C 166.625 150.863281 166.695312 150.679688 166.621094 150.523438 C 164.824219 146.660156 164.769531 141.867188 166.472656 138.015625 C 166.542969 137.859375 166.472656 137.671875 166.3125 137.601562 " fill-opacity="1" fill-rule="nonzero"/><path fill="#ffffff" d="M 173.765625 128.710938 C 173.359375 129.082031 172.949219 129.445312 172.539062 129.8125 C 170.777344 131.375 168.957031 132.996094 167.523438 134.96875 C 167.421875 135.105469 167.453125 135.304688 167.59375 135.402344 C 167.648438 135.445312 167.714844 135.464844 167.777344 135.464844 C 167.875 135.464844 167.96875 135.417969 168.03125 135.335938 C 169.421875 133.417969 171.21875 131.824219 172.957031 130.277344 C 173.367188 129.910156 173.78125 129.546875 174.1875 129.175781 C 174.3125 129.058594 174.324219 128.859375 174.207031 128.734375 C 174.089844 128.605469 173.890625 128.59375 173.765625 128.710938 " fill-opacity="1" fill-rule="nonzero"/><path fill="#ffffff" d="M 175.808594 126.726562 C 175.683594 126.847656 175.675781 127.046875 175.796875 127.171875 C 175.859375 127.234375 175.941406 127.269531 176.023438 127.269531 C 176.101562 127.269531 176.179688 127.238281 176.238281 127.183594 C 180.972656 122.699219 180.535156 116.445312 180.113281 110.394531 C 179.925781 107.757812 179.738281 105.027344 180.003906 102.546875 C 180.019531 102.375 179.898438 102.222656 179.722656 102.203125 C 179.550781 102.183594 179.398438 102.308594 179.378906 102.480469 C 179.109375 105.015625 179.300781 107.773438 179.488281 110.4375 C 179.902344 116.34375 180.328125 122.449219 175.808594 126.726562 " fill-opacity="1" fill-rule="nonzero"/><path fill="#ffffff" d="M 197.253906 90.964844 C 193.183594 89.203125 189.019531 89.65625 185.214844 92.28125 C 182.839844 93.921875 181.199219 96.257812 180.058594 99.636719 C 180 99.796875 180.089844 99.976562 180.253906 100.03125 C 180.417969 100.089844 180.59375 100 180.648438 99.835938 C 181.75 96.59375 183.3125 94.355469 185.574219 92.796875 C 189.1875 90.300781 193.144531 89.867188 197.007812 91.539062 C 202.554688 93.9375 207.335938 100.652344 208.371094 107.5 C 208.394531 107.65625 208.53125 107.765625 208.683594 107.765625 C 208.699219 107.765625 208.714844 107.765625 208.730469 107.761719 C 208.902344 107.738281 209.019531 107.578125 208.992188 107.40625 C 207.90625 100.242188 203.082031 93.480469 197.253906 90.964844 " fill-opacity="1" fill-rule="nonzero"/><path fill="#ffffff" d="M 207.742188 125.640625 C 207.769531 125.648438 207.800781 125.652344 207.828125 125.652344 C 207.964844 125.652344 208.089844 125.566406 208.128906 125.425781 C 209.589844 120.398438 210.023438 115.136719 209.382812 110.210938 C 209.363281 110.039062 209.203125 109.917969 209.03125 109.9375 C 208.859375 109.960938 208.738281 110.117188 208.761719 110.289062 C 209.390625 115.128906 208.964844 120.304688 207.527344 125.253906 C 207.480469 125.417969 207.574219 125.59375 207.742188 125.640625 " fill-opacity="1" fill-rule="nonzero"/><path fill="#ffffff" d="M 180.886719 152.9375 C 190.792969 152.84375 199.917969 144.125 204.207031 136.066406 C 205.546875 133.546875 206.566406 130.890625 207.230469 128.167969 C 207.269531 128 207.167969 127.832031 207 127.789062 C 206.832031 127.75 206.664062 127.851562 206.621094 128.019531 C 205.96875 130.691406 204.96875 133.300781 203.65625 135.769531 C 199.449219 143.671875 190.53125 152.21875 180.882812 152.3125 C 180.707031 152.3125 180.570312 152.453125 180.570312 152.628906 C 180.574219 152.800781 180.710938 152.9375 180.886719 152.9375 " fill-opacity="1" fill-rule="nonzero"/><path fill="#ffffff" d="M 171.296875 139.0625 C 171.136719 138.996094 170.957031 139.074219 170.890625 139.238281 C 169.847656 141.84375 169.78125 144.878906 170.722656 147.359375 C 171.78125 150.152344 174.367188 152.003906 178.199219 152.707031 C 178.21875 152.710938 178.238281 152.710938 178.257812 152.710938 C 178.40625 152.710938 178.539062 152.605469 178.566406 152.457031 C 178.597656 152.285156 178.484375 152.121094 178.316406 152.089844 C 174.65625 151.417969 172.300781 149.75 171.308594 147.136719 C 170.421875 144.800781 170.484375 141.933594 171.472656 139.46875 C 171.539062 139.308594 171.460938 139.125 171.296875 139.0625 " fill-opacity="1" fill-rule="nonzero"/><path fill="#ffffff" d="M 179.777344 130.210938 C 176.980469 133.09375 174.546875 134.9375 173.242188 135.929688 C 172.839844 136.230469 172.550781 136.449219 172.371094 136.609375 C 172.242188 136.722656 172.226562 136.921875 172.339844 137.050781 C 172.402344 137.121094 172.492188 137.15625 172.578125 137.15625 C 172.652344 137.15625 172.722656 137.132812 172.785156 137.082031 C 172.949219 136.9375 173.246094 136.710938 173.621094 136.425781 C 174.941406 135.425781 177.394531 133.5625 180.226562 130.648438 C 182.632812 128.164062 185.46875 124.605469 185.992188 119.078125 C 186.210938 116.734375 185.957031 114.304688 185.710938 111.953125 C 185.300781 108.085938 184.878906 104.085938 186.527344 100.246094 C 187.460938 98.304688 189.085938 96.882812 190.988281 96.347656 C 192.820312 95.832031 194.78125 96.160156 196.5 97.269531 C 204.457031 102.417969 203.726562 115.054688 202.582031 122.132812 C 202.554688 122.300781 202.671875 122.460938 202.84375 122.492188 C 203.011719 122.515625 203.175781 122.402344 203.203125 122.230469 C 204.371094 115.003906 205.09375 102.085938 196.839844 96.746094 C 194.964844 95.535156 192.828125 95.179688 190.816406 95.746094 C 188.742188 96.328125 186.972656 97.871094 185.957031 99.988281 C 184.238281 103.988281 184.667969 108.070312 185.085938 112.019531 C 185.339844 114.445312 185.582031 116.738281 185.367188 119.019531 C 184.863281 124.351562 182.113281 127.800781 179.777344 130.210938 " fill-opacity="1" fill-rule="nonzero"/><path fill="#ffffff" d="M 178.28125 147.105469 C 179.164062 147.480469 180.074219 147.644531 181 147.644531 C 185.242188 147.644531 189.753906 144.136719 193.046875 140.851562 C 197.023438 136.890625 200.066406 131.941406 201.847656 126.546875 C 202.015625 126.03125 202.183594 125.507812 202.351562 124.96875 C 202.40625 124.804688 202.3125 124.628906 202.148438 124.574219 C 201.980469 124.523438 201.808594 124.617188 201.753906 124.78125 C 201.585938 125.316406 201.421875 125.839844 201.25 126.351562 C 199.5 131.652344 196.511719 136.515625 192.605469 140.410156 C 188.730469 144.273438 183.140625 148.472656 178.523438 146.53125 C 176.847656 145.824219 175.417969 143.949219 176.234375 141.496094 C 176.808594 139.765625 179.710938 136.984375 184.632812 133.460938 C 184.773438 133.359375 184.808594 133.164062 184.707031 133.023438 C 184.605469 132.882812 184.410156 132.851562 184.269531 132.953125 C 179.167969 136.605469 176.261719 139.414062 175.636719 141.296875 C 174.738281 144.003906 176.285156 146.269531 178.28125 147.105469 " fill-opacity="1" fill-rule="nonzero"/><path fill="#ffffff" d="M 191.707031 109.933594 C 191.003906 107.316406 190.339844 104.847656 191.796875 104.039062 C 191.945312 103.953125 192 103.761719 191.917969 103.609375 C 191.832031 103.460938 191.644531 103.40625 191.492188 103.488281 C 189.609375 104.535156 190.367188 107.363281 191.101562 110.09375 C 191.347656 111.015625 191.605469 111.96875 191.757812 112.839844 C 192.785156 118.652344 191.125 126.738281 185.964844 130.949219 C 185.828125 131.058594 185.808594 131.253906 185.917969 131.390625 C 185.980469 131.464844 186.070312 131.503906 186.160156 131.503906 C 186.230469 131.503906 186.300781 131.480469 186.359375 131.433594 C 191.707031 127.074219 193.433594 118.722656 192.375 112.730469 C 192.21875 111.832031 191.957031 110.867188 191.707031 109.933594 " fill-opacity="1" fill-rule="nonzero"/><path fill="#ffffff" d="M 198.179688 115.132812 C 198.183594 115.132812 198.1875 115.132812 198.191406 115.132812 C 198.359375 115.132812 198.496094 114.996094 198.503906 114.828125 C 198.691406 108.746094 197.285156 104.800781 194.316406 103.097656 C 194.167969 103.011719 193.976562 103.066406 193.890625 103.214844 C 193.804688 103.363281 193.855469 103.554688 194.007812 103.644531 C 196.757812 105.21875 198.058594 108.976562 197.875 114.808594 C 197.871094 114.980469 198.007812 115.125 198.179688 115.132812 " fill-opacity="1" fill-rule="nonzero"/><path fill="#ffffff" d="M 190.765625 134.277344 C 190.824219 134.328125 190.898438 134.351562 190.96875 134.351562 C 191.058594 134.351562 191.144531 134.3125 191.207031 134.238281 C 194.296875 130.554688 198.046875 124.722656 198.375 117.867188 C 198.382812 117.695312 198.25 117.550781 198.078125 117.539062 C 197.90625 117.539062 197.757812 117.664062 197.75 117.839844 C 197.425781 124.519531 193.753906 130.226562 190.726562 133.835938 C 190.617188 133.96875 190.632812 134.167969 190.765625 134.277344 " fill-opacity="1" fill-rule="nonzero"/><path fill="#ffffff" d="M 189.265625 135.90625 C 189.144531 135.78125 188.945312 135.78125 188.824219 135.902344 C 186.367188 138.328125 183.855469 140.234375 181.351562 141.558594 C 181.199219 141.640625 181.140625 141.828125 181.222656 141.980469 C 181.277344 142.085938 181.386719 142.148438 181.5 142.148438 C 181.546875 142.148438 181.597656 142.136719 181.644531 142.113281 C 184.203125 140.757812 186.765625 138.820312 189.265625 136.347656 C 189.386719 136.226562 189.386719 136.027344 189.265625 135.90625 " fill-opacity="1" fill-rule="nonzero"/><path fill="#ffffff" d="M 225.234375 138.652344 C 225.074219 138.582031 224.890625 138.65625 224.820312 138.8125 C 222.46875 144.191406 219.140625 151.109375 214.210938 156.894531 C 214.101562 157.027344 214.117188 157.226562 214.246094 157.339844 C 214.304688 157.386719 214.378906 157.414062 214.449219 157.414062 C 214.539062 157.414062 214.628906 157.375 214.6875 157.300781 C 219.671875 151.453125 223.027344 144.484375 225.394531 139.066406 C 225.464844 138.90625 225.390625 138.722656 225.234375 138.652344 " fill-opacity="1" fill-rule="nonzero"/><path fill="#ffffff" d="M 194.28125 172.253906 C 194.324219 172.253906 194.363281 172.246094 194.40625 172.230469 C 202.445312 168.726562 208.808594 164.234375 213.3125 158.882812 C 213.425781 158.75 213.40625 158.550781 213.277344 158.441406 C 213.140625 158.328125 212.945312 158.34375 212.835938 158.476562 C 208.390625 163.757812 202.105469 168.191406 194.15625 171.65625 C 193.996094 171.722656 193.925781 171.910156 193.992188 172.066406 C 194.042969 172.1875 194.160156 172.253906 194.28125 172.253906 " fill-opacity="1" fill-rule="nonzero"/><path fill="#ffffff" d="M 192.25 172.300781 C 183.605469 174.78125 175.097656 174.589844 168.296875 171.761719 C 168.140625 171.695312 167.957031 171.769531 167.890625 171.929688 C 167.820312 172.089844 167.898438 172.273438 168.058594 172.339844 C 171.769531 173.882812 175.972656 174.65625 180.429688 174.65625 C 184.292969 174.65625 188.34375 174.074219 192.421875 172.90625 C 192.589844 172.855469 192.6875 172.683594 192.636719 172.515625 C 192.589844 172.351562 192.417969 172.253906 192.25 172.300781 " fill-opacity="1" fill-rule="nonzero"/><path fill="#ffffff" d="M 166.210938 171.566406 C 166.253906 171.585938 166.296875 171.59375 166.339844 171.59375 C 166.460938 171.59375 166.574219 171.527344 166.625 171.410156 C 166.695312 171.253906 166.628906 171.066406 166.46875 170.996094 C 163.546875 169.667969 156.441406 163.945312 153.84375 158.199219 C 153.773438 158.039062 153.585938 157.96875 153.429688 158.042969 C 153.269531 158.113281 153.199219 158.296875 153.273438 158.457031 C 155.972656 164.429688 163.128906 170.164062 166.210938 171.566406 " fill-opacity="1" fill-rule="nonzero"/><path fill="#ffffff" d="M 223.679688 147.351562 C 223.523438 147.277344 223.335938 147.34375 223.261719 147.5 C 219.277344 155.867188 212.015625 164.25 207.203125 167.890625 C 207.066406 167.996094 207.039062 168.191406 207.144531 168.332031 C 207.207031 168.414062 207.300781 168.457031 207.394531 168.457031 C 207.460938 168.457031 207.527344 168.433594 207.582031 168.390625 C 212.453125 164.707031 219.800781 156.226562 223.828125 147.769531 C 223.902344 147.613281 223.835938 147.425781 223.679688 147.351562 " fill-opacity="1" fill-rule="nonzero"/><path fill="#ffffff" d="M 182.832031 177.476562 C 191.785156 177.144531 200.382812 174.21875 205.828125 169.660156 C 205.960938 169.546875 205.976562 169.347656 205.867188 169.21875 C 205.757812 169.085938 205.558594 169.066406 205.425781 169.179688 C 200.082031 173.652344 191.625 176.523438 182.808594 176.851562 C 173.097656 177.214844 164.621094 174.492188 158.945312 169.1875 C 158.816406 169.070312 158.617188 169.078125 158.5 169.203125 C 158.382812 169.332031 158.390625 169.527344 158.515625 169.648438 C 163.976562 174.746094 171.945312 177.507812 181.101562 177.507812 C 181.671875 177.507812 182.25 177.5 182.832031 177.476562 " fill-opacity="1" fill-rule="nonzero"/><path fill="#ffffff" d="M 222.785156 153.621094 C 222.632812 153.539062 222.445312 153.597656 222.363281 153.75 C 220.679688 156.917969 217.722656 160.714844 216.527344 162.199219 C 210.277344 169.976562 201.609375 175.757812 192.117188 178.480469 C 191.949219 178.527344 191.855469 178.703125 191.902344 178.867188 C 191.941406 179.003906 192.066406 179.09375 192.203125 179.09375 C 192.230469 179.09375 192.261719 179.089844 192.289062 179.082031 C 201.902344 176.324219 210.6875 170.46875 217.015625 162.589844 C 218.222656 161.09375 221.207031 157.257812 222.914062 154.042969 C 222.996094 153.890625 222.9375 153.699219 222.785156 153.621094 " fill-opacity="1" fill-rule="nonzero"/><path fill="#ffffff" d="M 190.179688 178.984375 C 186.78125 180.011719 183.058594 180.34375 179.113281 179.976562 C 178.9375 179.957031 178.789062 180.085938 178.769531 180.257812 C 178.753906 180.429688 178.882812 180.582031 179.054688 180.601562 C 180.113281 180.699219 181.152344 180.75 182.179688 180.75 C 185.058594 180.75 187.800781 180.359375 190.363281 179.585938 C 190.527344 179.535156 190.621094 179.359375 190.570312 179.195312 C 190.519531 179.027344 190.347656 178.9375 190.179688 178.984375 " fill-opacity="1" fill-rule="nonzero"/><path fill="#ffffff" d="M 177.203125 180.375 C 177.355469 180.375 177.488281 180.265625 177.511719 180.109375 C 177.535156 179.9375 177.417969 179.777344 177.246094 179.753906 C 172.691406 179.089844 168.878906 178.101562 165.585938 176.734375 C 165.429688 176.667969 165.246094 176.742188 165.175781 176.902344 C 165.109375 177.0625 165.1875 177.246094 165.347656 177.3125 C 168.6875 178.699219 172.550781 179.703125 177.15625 180.371094 C 177.171875 180.375 177.1875 180.375 177.203125 180.375 " fill-opacity="1" fill-rule="nonzero"/><path fill="#ffffff" d="M 221.4375 159.03125 C 220.394531 160.574219 219.296875 162.074219 218.164062 163.492188 C 218.058594 163.625 218.082031 163.824219 218.214844 163.929688 C 218.273438 163.976562 218.34375 164 218.410156 164 C 218.503906 164 218.59375 163.960938 218.65625 163.882812 C 219.796875 162.449219 220.90625 160.9375 221.957031 159.382812 C 222.050781 159.242188 222.015625 159.046875 221.871094 158.949219 C 221.726562 158.851562 221.535156 158.890625 221.4375 159.03125 " fill-opacity="1" fill-rule="nonzero"/><path fill="#ffffff" d="M 206.855469 175.28125 C 210.5625 172.597656 214.0625 169.335938 217.261719 165.574219 C 217.375 165.445312 217.359375 165.246094 217.226562 165.132812 C 217.09375 165.023438 216.898438 165.035156 216.785156 165.167969 C 213.617188 168.890625 210.15625 172.121094 206.488281 174.773438 C 206.347656 174.875 206.316406 175.070312 206.417969 175.210938 C 206.476562 175.292969 206.574219 175.339844 206.671875 175.339844 C 206.734375 175.339844 206.796875 175.320312 206.855469 175.28125 " fill-opacity="1" fill-rule="nonzero"/><path fill="#ffffff" d="M 204.824219 175.925781 C 199.160156 179.691406 192.863281 182.085938 186.617188 182.851562 C 186.445312 182.871094 186.324219 183.027344 186.34375 183.199219 C 186.363281 183.359375 186.5 183.476562 186.65625 183.476562 C 186.667969 183.476562 186.679688 183.476562 186.695312 183.472656 C 193.039062 182.695312 199.429688 180.265625 205.171875 176.445312 C 205.316406 176.351562 205.355469 176.15625 205.261719 176.011719 C 205.164062 175.867188 204.96875 175.828125 204.824219 175.925781 " fill-opacity="1" fill-rule="nonzero"/><path fill="#ffffff" d="M 184.789062 183.660156 C 184.960938 183.648438 185.089844 183.5 185.078125 183.324219 C 185.0625 183.152344 184.921875 183.023438 184.742188 183.035156 C 178.929688 183.472656 173.042969 182.609375 167.714844 180.542969 C 167.554688 180.480469 167.371094 180.558594 167.308594 180.71875 C 167.246094 180.882812 167.324219 181.0625 167.488281 181.125 C 171.984375 182.875 176.875 183.773438 181.789062 183.773438 C 182.789062 183.773438 183.789062 183.738281 184.789062 183.660156 " fill-opacity="1" fill-rule="nonzero"/><path fill="#ffffff" d="M 220.480469 164.574219 C 219.160156 166.363281 217.796875 168.058594 216.421875 169.613281 C 216.308594 169.742188 216.320312 169.941406 216.449219 170.054688 C 216.507812 170.105469 216.582031 170.132812 216.65625 170.132812 C 216.742188 170.132812 216.832031 170.097656 216.890625 170.027344 C 218.277344 168.457031 219.65625 166.75 220.988281 164.945312 C 221.089844 164.804688 221.058594 164.609375 220.921875 164.507812 C 220.78125 164.40625 220.585938 164.433594 220.480469 164.574219 " fill-opacity="1" fill-rule="nonzero"/><path fill="#ffffff" d="M 199.070312 182.914062 C 199.121094 183.03125 199.238281 183.101562 199.359375 183.101562 C 199.398438 183.101562 199.441406 183.09375 199.480469 183.078125 C 205.25 180.605469 210.667969 176.699219 215.578125 171.46875 C 215.699219 171.34375 215.691406 171.144531 215.566406 171.027344 C 215.4375 170.90625 215.242188 170.914062 215.121094 171.039062 C 210.269531 176.207031 204.921875 180.066406 199.234375 182.5 C 199.074219 182.570312 199.003906 182.753906 199.070312 182.914062 " fill-opacity="1" fill-rule="nonzero"/><path fill="#ffffff" d="M 197.621094 183.820312 C 197.78125 183.753906 197.855469 183.566406 197.785156 183.410156 C 197.714844 183.25 197.53125 183.179688 197.371094 183.25 C 190.339844 186.328125 181.695312 186.816406 171.675781 184.699219 C 171.507812 184.664062 171.339844 184.769531 171.304688 184.941406 C 171.269531 185.109375 171.378906 185.273438 171.546875 185.3125 C 175.664062 186.183594 179.558594 186.617188 183.207031 186.617188 C 188.550781 186.617188 193.375 185.683594 197.621094 183.820312 " fill-opacity="1" fill-rule="nonzero"/><path fill="#ffffff" d="M 219.628906 169.933594 C 218.769531 171.128906 217.835938 172.300781 216.847656 173.414062 C 216.734375 173.542969 216.746094 173.742188 216.875 173.855469 C 216.9375 173.910156 217.011719 173.933594 217.082031 173.933594 C 217.171875 173.933594 217.257812 173.898438 217.320312 173.828125 C 218.316406 172.699219 219.265625 171.511719 220.140625 170.300781 C 220.242188 170.160156 220.207031 169.964844 220.070312 169.863281 C 219.929688 169.761719 219.730469 169.792969 219.628906 169.933594 " fill-opacity="1" fill-rule="nonzero"/><path fill="#ffffff" d="M 215.308594 175.074219 C 213.023438 177.410156 210.480469 179.507812 207.746094 181.304688 C 207.601562 181.398438 207.5625 181.59375 207.65625 181.738281 C 207.714844 181.828125 207.816406 181.878906 207.917969 181.878906 C 207.976562 181.878906 208.035156 181.863281 208.089844 181.828125 C 210.859375 180.003906 213.441406 177.882812 215.753906 175.511719 C 215.875 175.386719 215.875 175.1875 215.75 175.066406 C 215.625 174.949219 215.429688 174.949219 215.308594 175.074219 " fill-opacity="1" fill-rule="nonzero"/><path fill="#ffffff" d="M 206.019531 182.382812 C 201.378906 185.148438 196.359375 187.0625 191.101562 188.074219 C 190.929688 188.109375 190.820312 188.273438 190.851562 188.441406 C 190.878906 188.59375 191.011719 188.695312 191.160156 188.695312 C 191.179688 188.695312 191.199219 188.695312 191.21875 188.691406 C 196.550781 187.667969 201.636719 185.726562 206.339844 182.921875 C 206.488281 182.835938 206.535156 182.640625 206.449219 182.492188 C 206.359375 182.34375 206.167969 182.296875 206.019531 182.382812 " fill-opacity="1" fill-rule="nonzero"/><g clip-path="url(#b3b7dd3b03)"><path fill="#ffffff" d="M 189.179688 188.402344 C 186.300781 188.828125 182.0625 188.835938 178.878906 188.417969 C 178.707031 188.394531 178.550781 188.515625 178.527344 188.6875 C 178.507812 188.855469 178.628906 189.015625 178.800781 189.039062 C 180.394531 189.246094 182.253906 189.351562 184.078125 189.351562 C 185.949219 189.351562 187.789062 189.242188 189.273438 189.019531 C 189.445312 188.996094 189.5625 188.835938 189.539062 188.664062 C 189.511719 188.496094 189.351562 188.378906 189.179688 188.402344 " fill-opacity="1" fill-rule="nonzero"/></g><g fill="#ffffff" fill-opacity="1"><g transform="translate(102.650438, 256.439478)"><g><path d="M 16.359375 10.359375 C 11.304688 7.242188 8.285156 3.785156 7.296875 -0.015625 C 6.316406 -3.816406 7.332031 -8.164062 10.34375 -13.0625 C 13.363281 -17.957031 16.789062 -20.816406 20.625 -21.640625 C 24.46875 -22.472656 28.914062 -21.332031 33.96875 -18.21875 C 37.875 -15.8125 40.679688 -13.019531 42.390625 -9.84375 L 38.640625 -3.734375 C 38.554688 -3.597656 38.4375 -3.578125 38.28125 -3.671875 C 38.113281 -3.773438 38.0625 -3.898438 38.125 -4.046875 C 38.15625 -4.347656 38.203125 -4.644531 38.265625 -4.9375 C 38.335938 -5.226562 38.414062 -5.535156 38.5 -5.859375 C 39.039062 -8.203125 38.875 -10.273438 38 -12.078125 C 37.125 -13.878906 35.515625 -15.5 33.171875 -16.9375 C 30.035156 -18.875 27.0625 -19.25 24.25 -18.0625 C 21.445312 -16.875 18.675781 -14.0625 15.9375 -9.625 C 13.207031 -5.175781 11.941406 -1.429688 12.140625 1.609375 C 12.335938 4.648438 14.003906 7.140625 17.140625 9.078125 C 19.484375 10.515625 21.664062 11.203125 23.6875 11.140625 C 25.707031 11.085938 27.65625 10.28125 29.53125 8.71875 C 29.789062 8.550781 30.03125 8.367188 30.25 8.171875 C 30.476562 7.984375 30.71875 7.78125 30.96875 7.5625 C 31.101562 7.457031 31.238281 7.445312 31.375 7.53125 C 31.53125 7.625 31.566406 7.738281 31.484375 7.875 L 27.71875 13.984375 C 24.21875 14.066406 20.429688 12.859375 16.359375 10.359375 Z M 16.359375 10.359375 "/></g></g></g><g fill="#ffffff" fill-opacity="1"><g transform="translate(134.062902, 274.653446)"><g><path d="M 1.9375 0.703125 C 1.90625 0.691406 1.929688 0.566406 2.015625 0.328125 C 2.085938 0.128906 2.140625 0.0351562 2.171875 0.046875 L 2.703125 0.234375 C 3.316406 0.453125 3.847656 0.539062 4.296875 0.5 C 4.742188 0.457031 5.160156 0.179688 5.546875 -0.328125 C 5.929688 -0.835938 6.363281 -1.671875 6.84375 -2.828125 C 7.320312 -3.984375 7.914062 -5.550781 8.625 -7.53125 L 9.25 -9.296875 C 9.9375 -11.203125 10.484375 -12.671875 10.890625 -13.703125 C 11.296875 -14.742188 11.554688 -15.503906 11.671875 -15.984375 C 11.796875 -16.472656 11.78125 -16.800781 11.625 -16.96875 C 11.476562 -17.144531 11.207031 -17.285156 10.8125 -17.390625 C 10.414062 -17.492188 9.898438 -17.722656 9.265625 -18.078125 L 8.765625 -18.359375 C 8.703125 -18.460938 8.695312 -18.585938 8.75 -18.734375 C 8.757812 -18.765625 8.8125 -18.769531 8.90625 -18.75 L 16.515625 -18.984375 L 17.53125 -18.609375 L 16.5 -15.046875 C 18.4375 -17.140625 20.820312 -17.679688 23.65625 -16.671875 C 24.945312 -16.203125 25.695312 -15.632812 25.90625 -14.96875 C 26.113281 -14.300781 26.015625 -13.40625 25.609375 -12.28125 C 25.023438 -10.664062 23.925781 -10.148438 22.3125 -10.734375 C 21.6875 -10.953125 21.191406 -11.304688 20.828125 -11.796875 C 20.460938 -12.296875 20.101562 -12.789062 19.75 -13.28125 C 19.394531 -13.78125 18.894531 -14.144531 18.25 -14.375 C 17.363281 -14.6875 16.722656 -14.695312 16.328125 -14.40625 L 14.390625 -7.640625 L 13.75 -7.671875 L 14.328125 -7.46875 L 13.703125 -5.703125 C 12.992188 -3.722656 12.457031 -2.132812 12.09375 -0.9375 C 11.726562 0.257812 11.535156 1.175781 11.515625 1.8125 C 11.503906 2.457031 11.648438 2.929688 11.953125 3.234375 C 12.253906 3.546875 12.734375 3.820312 13.390625 4.0625 L 13.875 4.234375 C 13.925781 4.253906 13.914062 4.363281 13.84375 4.5625 C 13.757812 4.800781 13.691406 4.910156 13.640625 4.890625 Z M 1.9375 0.703125 "/></g></g></g><g fill="#ffffff" fill-opacity="1"><g transform="translate(155.029592, 281.888585)"><g><path d="M 13.21875 -24.5625 C 10.851562 -25.050781 9.910156 -26.476562 10.390625 -28.84375 C 10.859375 -31.164062 12.273438 -32.082031 14.640625 -31.59375 C 16.992188 -31.113281 17.9375 -29.710938 17.46875 -27.390625 C 16.988281 -25.023438 15.570312 -24.082031 13.21875 -24.5625 Z M 2.015625 0.40625 C 1.984375 0.40625 1.992188 0.28125 2.046875 0.03125 C 2.085938 -0.175781 2.125 -0.28125 2.15625 -0.28125 L 2.671875 -0.171875 C 3.335938 -0.0351562 3.878906 -0.0195312 4.296875 -0.125 C 4.722656 -0.226562 5.097656 -0.554688 5.421875 -1.109375 C 5.742188 -1.671875 6.0625 -2.554688 6.375 -3.765625 C 6.6875 -4.972656 7.050781 -6.601562 7.46875 -8.65625 L 9.3125 -17.703125 C 9.332031 -18.117188 9.25 -18.378906 9.0625 -18.484375 C 8.882812 -18.585938 8.59375 -18.671875 8.1875 -18.734375 C 7.78125 -18.796875 7.253906 -18.957031 6.609375 -19.21875 L 6.125 -19.421875 C 6.039062 -19.503906 6.015625 -19.617188 6.046875 -19.765625 C 6.054688 -19.828125 6.109375 -19.847656 6.203125 -19.828125 L 14.421875 -20.984375 L 15.484375 -20.765625 L 12.796875 -7.578125 C 12.378906 -5.523438 12.070312 -3.878906 11.875 -2.640625 C 11.6875 -1.398438 11.628906 -0.460938 11.703125 0.171875 C 11.785156 0.804688 12 1.253906 12.34375 1.515625 C 12.6875 1.773438 13.195312 1.976562 13.875 2.125 L 14.375 2.21875 C 14.40625 2.226562 14.398438 2.335938 14.359375 2.546875 C 14.304688 2.796875 14.265625 2.914062 14.234375 2.90625 Z M 2.015625 0.40625 "/></g></g></g><g fill="#ffffff" fill-opacity="1"><g transform="translate(174.172825, 286.989195)"><g><path d="M 2.015625 -0.0625 C 1.984375 -0.0625 1.960938 -0.1875 1.953125 -0.4375 C 1.953125 -0.65625 1.96875 -0.765625 2 -0.765625 L 2.5625 -0.78125 C 3.21875 -0.789062 3.742188 -0.894531 4.140625 -1.09375 C 4.546875 -1.300781 4.832031 -1.710938 5 -2.328125 C 5.164062 -2.941406 5.265625 -3.875 5.296875 -5.125 C 5.328125 -6.375 5.3125 -8.046875 5.25 -10.140625 L 5.203125 -12.015625 C 5.140625 -14.046875 5.109375 -15.613281 5.109375 -16.71875 C 5.109375 -17.832031 5.078125 -18.632812 5.015625 -19.125 C 4.960938 -19.625 4.832031 -19.925781 4.625 -20.03125 C 4.414062 -20.132812 4.109375 -20.164062 3.703125 -20.125 C 3.296875 -20.082031 2.734375 -20.113281 2.015625 -20.21875 L 1.453125 -20.296875 C 1.359375 -20.347656 1.304688 -20.453125 1.296875 -20.609375 C 1.296875 -20.640625 1.34375 -20.675781 1.4375 -20.71875 L 9.1875 -23.703125 L 10.265625 -23.734375 L 10.359375 -20.6875 C 11.265625 -21.832031 12.34375 -22.6875 13.59375 -23.25 C 14.84375 -23.820312 16.46875 -24.132812 18.46875 -24.1875 C 20.738281 -24.25 22.296875 -23.164062 23.140625 -20.9375 C 24.015625 -22.125 25.113281 -23.007812 26.4375 -23.59375 C 27.769531 -24.175781 29.53125 -24.5 31.71875 -24.5625 C 33.46875 -24.613281 34.800781 -24.015625 35.71875 -22.765625 C 36.644531 -21.523438 37.148438 -19.566406 37.234375 -16.890625 L 37.390625 -11.03125 C 37.453125 -8.9375 37.53125 -7.265625 37.625 -6.015625 C 37.71875 -4.773438 37.875 -3.851562 38.09375 -3.25 C 38.320312 -2.644531 38.632812 -2.253906 39.03125 -2.078125 C 39.425781 -1.898438 39.96875 -1.820312 40.65625 -1.84375 L 41.171875 -1.859375 C 41.203125 -1.859375 41.21875 -1.734375 41.21875 -1.484375 C 41.226562 -1.265625 41.21875 -1.15625 41.1875 -1.15625 L 28.765625 -0.796875 C 28.734375 -0.796875 28.710938 -0.921875 28.703125 -1.171875 C 28.703125 -1.390625 28.71875 -1.5 28.75 -1.5 L 29.265625 -1.515625 C 29.953125 -1.535156 30.488281 -1.644531 30.875 -1.84375 C 31.257812 -2.039062 31.539062 -2.445312 31.71875 -3.0625 C 31.90625 -3.675781 32.015625 -4.609375 32.046875 -5.859375 C 32.078125 -7.117188 32.0625 -8.796875 32 -10.890625 L 31.8125 -16.1875 C 31.71875 -19.363281 30.328125 -20.910156 27.640625 -20.828125 C 26.421875 -20.796875 25.484375 -20.71875 24.828125 -20.59375 C 24.179688 -20.46875 23.703125 -20.28125 23.390625 -20.03125 C 23.535156 -19.53125 23.640625 -18.988281 23.703125 -18.40625 C 23.765625 -17.832031 23.804688 -17.203125 23.828125 -16.515625 L 23.984375 -10.65625 C 24.046875 -8.5625 24.125 -6.890625 24.21875 -5.640625 C 24.3125 -4.398438 24.46875 -3.476562 24.6875 -2.875 C 24.914062 -2.269531 25.226562 -1.878906 25.625 -1.703125 C 26.019531 -1.523438 26.5625 -1.445312 27.25 -1.46875 L 27.765625 -1.484375 C 27.828125 -1.484375 27.84375 -1.359375 27.8125 -1.109375 C 27.851562 -0.890625 27.84375 -0.78125 27.78125 -0.78125 L 15.375 -0.421875 C 15.34375 -0.421875 15.320312 -0.546875 15.3125 -0.796875 C 15.3125 -1.015625 15.328125 -1.125 15.359375 -1.125 L 15.921875 -1.140625 C 16.578125 -1.160156 17.101562 -1.269531 17.5 -1.46875 C 17.90625 -1.664062 18.191406 -2.070312 18.359375 -2.6875 C 18.523438 -3.300781 18.625 -4.234375 18.65625 -5.484375 C 18.6875 -6.742188 18.671875 -8.421875 18.609375 -10.515625 L 18.46875 -15.8125 C 18.414062 -17.5625 18.039062 -18.835938 17.34375 -19.640625 C 16.65625 -20.441406 15.671875 -20.828125 14.390625 -20.796875 C 13.328125 -20.765625 12.484375 -20.675781 11.859375 -20.53125 C 11.234375 -20.394531 10.738281 -20.203125 10.375 -19.953125 L 10.578125 -12.359375 L 9.984375 -12.140625 L 10.59375 -12.171875 L 10.640625 -10.296875 C 10.703125 -8.203125 10.78125 -6.53125 10.875 -5.28125 C 10.96875 -4.03125 11.125 -3.101562 11.34375 -2.5 C 11.570312 -1.894531 11.882812 -1.503906 12.28125 -1.328125 C 12.675781 -1.148438 13.21875 -1.070312 13.90625 -1.09375 L 14.421875 -1.109375 C 14.484375 -1.109375 14.515625 -1 14.515625 -0.78125 C 14.523438 -0.53125 14.5 -0.40625 14.4375 -0.40625 Z M 2.015625 -0.0625 "/></g></g></g><g fill="#ffffff" fill-opacity="1"><g transform="translate(219.970814, 283.862016)"><g><path d="M 0.9375 -27.890625 C -1.382812 -27.273438 -2.847656 -28.128906 -3.453125 -30.453125 C -4.066406 -32.742188 -3.210938 -34.195312 -0.890625 -34.8125 C 1.429688 -35.425781 2.898438 -34.585938 3.515625 -32.296875 C 4.117188 -29.972656 3.257812 -28.503906 0.9375 -27.890625 Z M 2 -0.53125 C 1.96875 -0.519531 1.921875 -0.632812 1.859375 -0.875 C 1.804688 -1.09375 1.796875 -1.207031 1.828125 -1.21875 L 2.328125 -1.34375 C 2.984375 -1.519531 3.472656 -1.742188 3.796875 -2.015625 C 4.128906 -2.296875 4.316406 -2.753906 4.359375 -3.390625 C 4.410156 -4.035156 4.300781 -4.972656 4.03125 -6.203125 C 3.769531 -7.429688 3.375 -9.054688 2.84375 -11.078125 L 0.5 -20 C 0.332031 -20.375 0.144531 -20.566406 -0.0625 -20.578125 C -0.269531 -20.585938 -0.570312 -20.535156 -0.96875 -20.421875 C -1.363281 -20.304688 -1.910156 -20.21875 -2.609375 -20.15625 L -3.109375 -20.109375 C -3.222656 -20.148438 -3.296875 -20.25 -3.328125 -20.40625 C -3.347656 -20.457031 -3.3125 -20.492188 -3.21875 -20.515625 L 3.640625 -25.203125 L 4.6875 -25.484375 L 8.109375 -12.46875 C 8.640625 -10.445312 9.09375 -8.835938 9.46875 -7.640625 C 9.851562 -6.441406 10.21875 -5.570312 10.5625 -5.03125 C 10.914062 -4.5 11.304688 -4.191406 11.734375 -4.109375 C 12.171875 -4.035156 12.71875 -4.082031 13.375 -4.25 L 13.875 -4.390625 C 13.90625 -4.398438 13.945312 -4.296875 14 -4.078125 C 14.0625 -3.835938 14.078125 -3.710938 14.046875 -3.703125 Z M 2 -0.53125 "/></g></g></g><g fill="#ffffff" fill-opacity="1"><g transform="translate(238.37007, 279.382187)"><g><path d="M 13.546875 -6.328125 C 13.523438 -6.316406 13.460938 -6.421875 13.359375 -6.640625 C 13.265625 -6.847656 13.226562 -6.957031 13.25 -6.96875 L 13.765625 -7.21875 C 14.359375 -7.488281 14.800781 -7.789062 15.09375 -8.125 C 15.382812 -8.46875 15.484375 -8.953125 15.390625 -9.578125 C 15.304688 -10.210938 15.03125 -11.109375 14.5625 -12.265625 C 14.09375 -13.429688 13.414062 -14.960938 12.53125 -16.859375 L 10.296875 -21.671875 C 9.609375 -23.171875 8.890625 -24.171875 8.140625 -24.671875 C 7.398438 -25.171875 6.320312 -25.09375 4.90625 -24.4375 C 3.289062 -23.6875 2.234375 -22.988281 1.734375 -22.34375 L 5.71875 -13.75 C 6.59375 -11.851562 7.320312 -10.347656 7.90625 -9.234375 C 8.488281 -8.128906 9 -7.34375 9.4375 -6.875 C 9.875 -6.414062 10.3125 -6.179688 10.75 -6.171875 C 11.1875 -6.160156 11.71875 -6.300781 12.34375 -6.59375 L 12.8125 -6.8125 C 12.863281 -6.832031 12.929688 -6.742188 13.015625 -6.546875 C 13.117188 -6.316406 13.144531 -6.191406 13.09375 -6.171875 L 1.828125 -0.953125 C 1.796875 -0.929688 1.726562 -1.035156 1.625 -1.265625 C 1.539062 -1.460938 1.515625 -1.570312 1.546875 -1.59375 L 2.046875 -1.828125 C 2.648438 -2.097656 3.09375 -2.40625 3.375 -2.75 C 3.65625 -3.09375 3.753906 -3.578125 3.671875 -4.203125 C 3.585938 -4.835938 3.3125 -5.734375 2.84375 -6.890625 C 2.375 -8.054688 1.703125 -9.585938 0.828125 -11.484375 L 0.03125 -13.1875 C -0.820312 -15.03125 -1.46875 -16.460938 -1.90625 -17.484375 C -2.34375 -18.503906 -2.6875 -19.226562 -2.9375 -19.65625 C -3.195312 -20.09375 -3.4375 -20.316406 -3.65625 -20.328125 C -3.882812 -20.335938 -4.175781 -20.242188 -4.53125 -20.046875 C -4.894531 -19.859375 -5.429688 -19.671875 -6.140625 -19.484375 L -6.6875 -19.328125 C -6.789062 -19.347656 -6.875 -19.425781 -6.9375 -19.5625 C -6.957031 -19.59375 -6.929688 -19.644531 -6.859375 -19.71875 L -0.921875 -25.5 L 0.0625 -25.953125 L 1.359375 -23.15625 C 2.140625 -25.925781 4.078125 -28.023438 7.171875 -29.453125 C 9.015625 -30.304688 10.488281 -30.296875 11.59375 -29.421875 C 12.707031 -28.546875 13.828125 -26.890625 14.953125 -24.453125 L 17.421875 -19.125 C 18.304688 -17.226562 19.035156 -15.722656 19.609375 -14.609375 C 20.191406 -13.503906 20.707031 -12.71875 21.15625 -12.25 C 21.601562 -11.789062 22.039062 -11.554688 22.46875 -11.546875 C 22.90625 -11.546875 23.4375 -11.691406 24.0625 -11.984375 L 24.53125 -12.203125 C 24.582031 -12.222656 24.644531 -12.113281 24.71875 -11.875 C 24.84375 -11.6875 24.878906 -11.582031 24.828125 -11.5625 Z M 13.546875 -6.328125 "/></g></g></g><g fill="#ffffff" fill-opacity="1"><g transform="translate(267.302779, 265.546534)"><g><path d="M 11.234375 -8.3125 C 8.078125 -5.894531 5.160156 -4.878906 2.484375 -5.265625 C -0.191406 -5.648438 -2.773438 -7.46875 -5.265625 -10.71875 C -7.753906 -13.96875 -8.835938 -16.9375 -8.515625 -19.625 C -8.191406 -22.320312 -6.453125 -24.878906 -3.296875 -27.296875 C -0.148438 -29.703125 2.753906 -30.703125 5.421875 -30.296875 C 8.085938 -29.898438 10.664062 -28.078125 13.15625 -24.828125 C 15.644531 -21.578125 16.734375 -18.613281 16.421875 -15.9375 C 16.109375 -13.257812 14.378906 -10.71875 11.234375 -8.3125 Z M 10.5 -9.28125 C 12.007812 -10.4375 12.59375 -11.976562 12.25 -13.90625 C 11.914062 -15.832031 10.628906 -18.257812 8.390625 -21.1875 C 6.148438 -24.113281 4.140625 -25.988281 2.359375 -26.8125 C 0.585938 -27.644531 -1.050781 -27.484375 -2.5625 -26.328125 C -4.082031 -25.160156 -4.675781 -23.609375 -4.34375 -21.671875 C -4.019531 -19.734375 -2.738281 -17.300781 -0.5 -14.375 C 1.738281 -11.445312 3.75 -9.570312 5.53125 -8.75 C 7.320312 -7.9375 8.976562 -8.113281 10.5 -9.28125 Z M 10.5 -9.28125 "/></g></g></g><g fill="#ffffff" fill-opacity="1"><g transform="translate(291.614868, 246.671929)"><g><path d="M 15.796875 -18.921875 C 15.753906 -18.867188 15.707031 -18.820312 15.65625 -18.78125 C 15.613281 -18.75 15.570312 -18.710938 15.53125 -18.671875 L 1.203125 -1.4375 C 1.179688 -1.414062 1.078125 -1.484375 0.890625 -1.640625 C 0.710938 -1.785156 0.632812 -1.867188 0.65625 -1.890625 L 0.984375 -2.296875 C 1.421875 -2.816406 1.691406 -3.285156 1.796875 -3.703125 C 1.910156 -4.128906 1.796875 -4.613281 1.453125 -5.15625 C 1.117188 -5.707031 0.492188 -6.40625 -0.421875 -7.25 C -1.347656 -8.09375 -2.613281 -9.1875 -4.21875 -10.53125 L -14.3125 -18.921875 C -15.945312 -20.273438 -17.257812 -21.320312 -18.25 -22.0625 C -19.238281 -22.8125 -20.03125 -23.300781 -20.625 -23.53125 C -21.226562 -23.769531 -21.726562 -23.796875 -22.125 -23.609375 C -22.519531 -23.429688 -22.9375 -23.082031 -23.375 -22.5625 L -23.703125 -22.15625 C -23.722656 -22.132812 -23.828125 -22.203125 -24.015625 -22.359375 C -24.179688 -22.503906 -24.253906 -22.585938 -24.234375 -22.609375 L -15.90625 -32.625 C -15.90625 -32.625 -15.878906 -32.613281 -15.828125 -32.59375 C -15.785156 -32.582031 -15.71875 -32.535156 -15.625 -32.453125 C -15.53125 -32.367188 -15.460938 -32.300781 -15.421875 -32.25 C -15.390625 -32.195312 -15.375 -32.171875 -15.375 -32.171875 L -15.703125 -31.78125 C -16.140625 -31.25 -16.414062 -30.765625 -16.53125 -30.328125 C -16.644531 -29.898438 -16.523438 -29.421875 -16.171875 -28.890625 C -15.828125 -28.359375 -15.203125 -27.671875 -14.296875 -26.828125 C -13.390625 -25.984375 -12.117188 -24.882812 -10.484375 -23.53125 L 6.125 -9.703125 L 6.671875 -10.359375 C 8.191406 -12.179688 9.367188 -13.691406 10.203125 -14.890625 C 11.035156 -16.097656 11.578125 -17.144531 11.828125 -18.03125 C 12.078125 -18.914062 12.0625 -19.828125 11.78125 -20.765625 C 11.507812 -21.710938 11.035156 -22.828125 10.359375 -24.109375 L 9.8125 -25.125 C 9.769531 -25.28125 9.953125 -25.453125 10.359375 -25.640625 C 10.460938 -25.679688 10.554688 -25.648438 10.640625 -25.546875 C 11.460938 -24.578125 12.269531 -23.628906 13.0625 -22.703125 C 13.863281 -21.773438 14.671875 -20.804688 15.484375 -19.796875 L 15.984375 -19.203125 C 16.003906 -19.179688 15.941406 -19.085938 15.796875 -18.921875 Z M 15.796875 -18.921875 "/></g></g></g><g fill="#ffffff" fill-opacity="1"><g transform="translate(312.084031, 221.105647)"><g><path d="M 8.203125 -14.484375 C 7.703125 -13.546875 7.191406 -12.914062 6.671875 -12.59375 C 6.160156 -12.269531 5.5625 -12.164062 4.875 -12.28125 C 5.144531 -10.394531 4.679688 -8.320312 3.484375 -6.0625 C 1.828125 -2.9375 -0.515625 -2.179688 -3.546875 -3.796875 C -5.367188 -4.753906 -6.46875 -6.085938 -6.84375 -7.796875 C -7.21875 -9.503906 -6.867188 -11.660156 -5.796875 -14.265625 L -4.734375 -16.953125 L -9.671875 -19.578125 C -12.285156 -20.960938 -13.90625 -21.070312 -14.53125 -19.90625 C -15.226562 -18.582031 -14.535156 -17.054688 -12.453125 -15.328125 L -14.984375 -10.5625 C -16.460938 -11.769531 -17.222656 -13.273438 -17.265625 -15.078125 C -17.316406 -16.890625 -16.65625 -19.09375 -15.28125 -21.6875 C -14.238281 -23.65625 -12.960938 -24.820312 -11.453125 -25.1875 C -9.953125 -25.550781 -8.113281 -25.15625 -5.9375 -24 L 4 -18.734375 C 4.9375 -18.234375 5.679688 -17.953125 6.234375 -17.890625 C 6.785156 -17.828125 7.257812 -18.164062 7.65625 -18.90625 C 7.976562 -19.519531 8.140625 -19.976562 8.140625 -20.28125 C 8.140625 -20.582031 8.039062 -20.890625 7.84375 -21.203125 L 8.828125 -21.4375 C 9.191406 -20.769531 9.441406 -20.132812 9.578125 -19.53125 C 9.710938 -18.9375 9.675781 -18.25 9.46875 -17.46875 C 9.269531 -16.6875 8.847656 -15.691406 8.203125 -14.484375 Z M 1.53125 -10.1875 C 2.101562 -11.257812 2.503906 -12.207031 2.734375 -13.03125 L -3.4375 -16.3125 L -4.328125 -13.546875 C -4.953125 -11.710938 -4.320312 -10.296875 -2.4375 -9.296875 C -0.613281 -8.335938 0.707031 -8.632812 1.53125 -10.1875 Z M 1.53125 -10.1875 "/></g></g></g><g fill="#ffffff" fill-opacity="1"><g transform="translate(324.218039, 198.149064)"><g><path d="M 4.21875 -13.265625 C 3.925781 -12.285156 3.550781 -11.519531 3.09375 -10.96875 C 2.632812 -10.414062 2.179688 -9.910156 1.734375 -9.453125 C 1.285156 -9.003906 0.953125 -8.410156 0.734375 -7.671875 C 0.367188 -6.472656 0.546875 -5.488281 1.265625 -4.71875 L 1.359375 -4.53125 L 1.1875 -3.953125 L -6.75 -6.390625 L -26.984375 -12.46875 C -27.429688 -12.53125 -27.71875 -12.472656 -27.84375 -12.296875 C -27.976562 -12.128906 -28.097656 -11.847656 -28.203125 -11.453125 C -28.304688 -11.054688 -28.519531 -10.550781 -28.84375 -9.9375 L -29.078125 -9.40625 C -29.171875 -9.34375 -29.289062 -9.332031 -29.4375 -9.375 C -29.5 -9.394531 -29.515625 -9.445312 -29.484375 -9.53125 L -29.890625 -17.828125 L -29.578125 -18.859375 L -17.8125 -15.328125 C -18.914062 -16.773438 -18.953125 -19.21875 -17.921875 -22.65625 C -17.066406 -25.46875 -15.503906 -27.257812 -13.234375 -28.03125 C -10.972656 -28.800781 -7.878906 -28.597656 -3.953125 -27.421875 C -0.0664062 -26.253906 2.539062 -24.523438 3.875 -22.234375 C 5.207031 -19.941406 5.320312 -16.953125 4.21875 -13.265625 Z M 2.78125 -13.6875 C 3.3125 -15.457031 3.039062 -16.953125 1.96875 -18.171875 C 0.90625 -19.390625 -1.003906 -20.414062 -3.765625 -21.25 C -7.566406 -22.382812 -10.519531 -22.691406 -12.625 -22.171875 C -14.738281 -21.648438 -16.128906 -20.265625 -16.796875 -18.015625 C -17.242188 -16.554688 -17.296875 -15.578125 -16.953125 -15.078125 L -5.203125 -11.546875 C -2.890625 -10.847656 -1.085938 -10.671875 0.203125 -11.015625 C 1.492188 -11.359375 2.351562 -12.25 2.78125 -13.6875 Z M 2.78125 -13.6875 "/></g></g></g></svg>