<svg xmlns="http://www.w3.org/2000/svg" xmlns:xlink="http://www.w3.org/1999/xlink" width="500" zoomAndPan="magnify" viewBox="0 0 375 374.999991" height="500" preserveAspectRatio="xMidYMid meet" version="1.2"><defs><clipPath id="2704ed6f79"><path d="M 79 68 L 296.578125 68 L 296.578125 307 L 79 307 Z M 79 68 "/></clipPath></defs><g id="b454c2db60"><g clip-rule="nonzero" clip-path="url(#2704ed6f79)"><path style=" stroke:none;fill-rule:evenodd;fill:#000000;fill-opacity:1;" d="M 177.136719 89.8125 C 231.109375 89.8125 274.863281 133.535156 274.863281 187.46875 C 274.863281 241.40625 231.109375 285.128906 177.136719 285.128906 C 152.492188 285.128906 129.980469 276.019531 112.78125 260.964844 C 158.925781 250.699219 193.425781 209.546875 193.425781 160.339844 C 193.425781 133.355469 183.042969 108.792969 166.074219 90.429688 C 169.703125 90.019531 173.394531 89.8125 177.136719 89.8125 Z M 296.578125 187.46875 C 296.578125 121.546875 243.101562 68.109375 177.136719 68.109375 C 163.957031 68.109375 151.257812 70.246094 139.371094 74.203125 C 135.472656 75.5 132.640625 78.890625 132.054688 82.957031 C 131.472656 87.023438 133.238281 91.070312 136.617188 93.414062 C 157.84375 108.125 171.707031 132.617188 171.707031 160.339844 C 171.707031 205.289062 135.246094 241.722656 90.273438 241.722656 C 86.15625 241.722656 82.390625 244.046875 80.550781 247.726562 C 78.710938 251.402344 79.109375 255.804688 81.582031 259.089844 C 103.355469 288.058594 138.054688 306.828125 177.136719 306.828125 C 243.101562 306.828125 296.578125 253.390625 296.578125 187.46875 Z M 296.578125 187.46875 "/></g></g></svg>