<svg xmlns="http://www.w3.org/2000/svg" xmlns:xlink="http://www.w3.org/1999/xlink" width="500" zoomAndPan="magnify" viewBox="0 0 375 374.999991" height="500" preserveAspectRatio="xMidYMid meet" version="1.0"><defs><clipPath id="86eb2ea453"><path d="M 187.5 0 C 83.945312 0 0 83.945312 0 187.5 C 0 291.054688 83.945312 375 187.5 375 C 291.054688 375 375 291.054688 375 187.5 C 375 83.945312 291.054688 0 187.5 0 Z M 187.5 0 " clip-rule="nonzero"/></clipPath><clipPath id="ee425ffac1"><path d="M 55.792969 62.820312 L 310 62.820312 L 310 310.320312 L 55.792969 310.320312 Z M 55.792969 62.820312 " clip-rule="nonzero"/></clipPath></defs><g clip-path="url(#86eb2ea453)"><path stroke-linecap="butt" transform="matrix(0.75, 0, 0, 0.75, 0.0000045, -0.000000000000106581)" fill="none" stroke-linejoin="miter" d="M 249.999994 0.000000000000142109 C 111.927078 0.000000000000142109 -0.000006 111.927084 -0.000006 250 C -0.000006 388.072917 111.927078 500.000001 249.999994 500.000001 C 388.072911 500.000001 499.999995 388.072917 499.999995 250 C 499.999995 111.927084 388.072911 0.000000000000142109 249.999994 0.000000000000142109 Z M 249.999994 0.000000000000142109 " stroke="#507dbb" stroke-width="10" stroke-opacity="1" stroke-miterlimit="4"/></g><g clip-path="url(#ee425ffac1)"><path fill="#507dbb" d="M 284.972656 62.820312 L 175.53125 62.820312 C 160.390625 66.820312 151.148438 75.996094 150.113281 92.652344 C 150.214844 95.859375 150.320312 99.070312 150.421875 102.242188 C 150.421875 108.105469 150.386719 113.554688 150.421875 119.039062 C 150.421875 127.488281 150.355469 135.972656 150.386719 144.425781 L 80.785156 144.425781 C 79.300781 144.734375 77.847656 145.144531 76.421875 145.660156 C 74.996094 146.171875 73.613281 146.777344 72.269531 147.484375 C 70.929688 148.1875 69.644531 148.980469 68.414062 149.863281 C 67.179688 150.746094 66.015625 151.710938 64.917969 152.753906 C 63.820312 153.800781 62.800781 154.914062 61.859375 156.101562 C 60.917969 157.285156 60.058594 158.53125 59.289062 159.835938 C 58.519531 161.140625 57.84375 162.492188 57.261719 163.890625 C 56.679688 165.289062 56.195312 166.722656 55.8125 168.1875 L 55.8125 239.515625 C 56.222656 243.226562 57.453125 246.640625 59.503906 249.761719 C 60.96875 251.792969 62.695312 253.578125 64.679688 255.109375 C 66.664062 256.640625 68.824219 257.859375 71.164062 258.761719 C 75.742188 260.960938 80.570312 262.074219 85.648438 262.109375 L 93.617188 262.109375 L 93.617188 284.804688 C 93.824219 293.21875 94.0625 301.667969 94.269531 310.121094 C 98.339844 306.257812 101.824219 302.875 104.550781 300.21875 C 113.101562 291.839844 117.277344 287.5625 122.449219 282.042969 C 126.832031 277.421875 127.039062 277.144531 129.105469 275.007812 C 138.558594 265.144531 141.042969 263.96875 142.316406 263.453125 C 144.894531 262.351562 147.585938 261.859375 150.386719 261.96875 C 162.046875 262.417969 173.738281 262.175781 185.429688 262.109375 C 186.421875 262.148438 187.414062 262.140625 188.402344 262.082031 C 189.394531 262.019531 190.378906 261.910156 191.359375 261.746094 C 192.335938 261.582031 193.304688 261.371094 194.261719 261.105469 C 195.21875 260.84375 196.160156 260.53125 197.082031 260.171875 C 198.007812 259.808594 198.910156 259.402344 199.792969 258.945312 C 200.675781 258.492188 201.53125 257.992188 202.363281 257.449219 C 203.191406 256.90625 203.992188 256.320312 204.761719 255.695312 C 205.53125 255.066406 206.265625 254.402344 206.96875 253.699219 C 207.667969 252.996094 208.328125 252.261719 208.953125 251.488281 C 209.578125 250.714844 210.160156 249.914062 210.699219 249.082031 C 211.242188 248.25 211.738281 247.390625 212.1875 246.507812 C 212.640625 245.625 213.046875 244.71875 213.402344 243.792969 C 213.761719 242.867188 214.070312 241.925781 214.328125 240.96875 C 214.589844 240.011719 214.800781 239.042969 214.957031 238.0625 C 215.117188 237.085938 215.226562 236.097656 215.285156 235.109375 C 215.339844 234.117188 215.347656 233.125 215.300781 232.136719 C 215.402344 221.648438 215.335938 211.128906 215.335938 200.644531 L 215.335938 183.882812 L 215.4375 180.363281 C 218.21875 180.253906 220.882812 180.75 223.441406 181.847656 C 224.683594 182.363281 227.164062 183.503906 236.617188 193.402344 C 238.683594 195.539062 238.925781 195.816406 243.273438 200.4375 C 248.480469 205.957031 252.652344 210.234375 261.207031 218.613281 C 263.898438 221.269531 267.382812 224.652344 271.484375 228.515625 C 271.691406 220.0625 271.898438 211.625 272.105469 203.199219 L 272.105469 180.503906 L 280.109375 180.503906 C 285.175781 180.464844 289.992188 179.347656 294.5625 177.15625 C 296.898438 176.25 299.058594 175.03125 301.042969 173.5 C 303.027344 171.96875 304.75 170.1875 306.21875 168.15625 C 308.285156 165.027344 309.527344 161.601562 309.945312 157.875 L 309.945312 86.582031 C 309.558594 85.117188 309.074219 83.6875 308.492188 82.289062 C 307.910156 80.890625 307.230469 79.539062 306.460938 78.234375 C 305.691406 76.929688 304.835938 75.6875 303.890625 74.5 C 302.949219 73.316406 301.929688 72.199219 300.832031 71.15625 C 299.734375 70.113281 298.570312 69.148438 297.339844 68.265625 C 296.109375 67.382812 294.824219 66.589844 293.480469 65.882812 C 292.140625 65.179688 290.757812 64.570312 289.332031 64.054688 C 287.910156 63.542969 286.453125 63.128906 284.972656 62.820312 Z M 205.78125 232.136719 C 205.828125 232.816406 205.839844 233.5 205.816406 234.179688 C 205.789062 234.863281 205.730469 235.542969 205.632812 236.21875 C 205.535156 236.894531 205.402344 237.5625 205.230469 238.226562 C 205.0625 238.886719 204.859375 239.535156 204.621094 240.175781 C 204.382812 240.816406 204.109375 241.441406 203.804688 242.050781 C 203.5 242.664062 203.160156 243.257812 202.792969 243.832031 C 202.421875 244.40625 202.023438 244.957031 201.597656 245.492188 C 201.167969 246.023438 200.714844 246.53125 200.230469 247.011719 C 199.75 247.496094 199.242188 247.953125 198.710938 248.382812 C 198.179688 248.8125 197.625 249.210938 197.050781 249.582031 C 196.476562 249.949219 195.886719 250.289062 195.277344 250.59375 C 194.664062 250.902344 194.042969 251.175781 193.402344 251.414062 C 192.761719 251.65625 192.113281 251.859375 191.449219 252.03125 C 190.789062 252.199219 190.121094 252.335938 189.445312 252.433594 C 188.769531 252.53125 188.089844 252.59375 187.40625 252.621094 C 186.726562 252.644531 186.042969 252.636719 185.363281 252.589844 C 171.875 252.691406 158.425781 252.761719 144.9375 252.519531 C 143.964844 252.46875 142.992188 252.523438 142.03125 252.691406 C 141.070312 252.855469 140.136719 253.128906 139.234375 253.503906 C 138.332031 253.878906 137.484375 254.351562 136.6875 254.917969 C 135.894531 255.488281 135.171875 256.136719 134.523438 256.867188 C 129.554688 261.96875 124.035156 266.558594 119.484375 272.042969 C 114.339844 278.222656 108.683594 283.890625 102.515625 289.046875 C 102.617188 286.355469 102.996094 273.664062 103.167969 259.796875 C 103.28125 258.75 103.183594 257.722656 102.871094 256.714844 C 102.558594 255.707031 102.0625 254.804688 101.375 254.003906 C 100.632812 253.425781 99.804688 253.015625 98.898438 252.769531 C 97.988281 252.523438 97.066406 252.464844 96.132812 252.589844 C 92.582031 252.726562 88.992188 252.65625 85.441406 252.589844 C 84.773438 252.617188 84.101562 252.609375 83.433594 252.566406 C 82.765625 252.523438 82.101562 252.445312 81.4375 252.335938 C 80.777344 252.222656 80.125 252.078125 79.480469 251.898438 C 78.832031 251.71875 78.199219 251.503906 77.574219 251.257812 C 76.953125 251.015625 76.34375 250.738281 75.746094 250.425781 C 75.152344 250.117188 74.574219 249.777344 74.015625 249.410156 C 73.457031 249.039062 72.917969 248.644531 72.402344 248.21875 C 71.882812 247.792969 71.386719 247.34375 70.917969 246.867188 C 70.445312 246.386719 70 245.886719 69.582031 245.367188 C 69.164062 244.84375 68.773438 244.300781 68.410156 243.734375 C 68.046875 243.171875 67.714844 242.589844 67.414062 241.992188 C 67.109375 241.394531 66.839844 240.78125 66.601562 240.15625 C 66.363281 239.527344 66.160156 238.890625 65.988281 238.242188 C 65.816406 237.59375 65.675781 236.941406 65.574219 236.277344 C 65.46875 235.617188 65.402344 234.949219 65.367188 234.28125 C 65.332031 233.613281 65.332031 232.941406 65.367188 232.273438 C 65.265625 213.097656 65.265625 193.894531 65.367188 174.671875 C 65.328125 174.003906 65.324219 173.332031 65.351562 172.660156 C 65.382812 171.992188 65.449219 171.324219 65.546875 170.660156 C 65.648438 169.996094 65.78125 169.339844 65.949219 168.6875 C 66.117188 168.039062 66.316406 167.398438 66.550781 166.769531 C 66.785156 166.140625 67.050781 165.527344 67.351562 164.925781 C 67.648438 164.324219 67.976562 163.738281 68.335938 163.171875 C 68.695312 162.605469 69.085938 162.058594 69.5 161.53125 C 69.917969 161.003906 70.359375 160.5 70.828125 160.019531 C 71.296875 159.539062 71.789062 159.082031 72.304688 158.652344 C 72.820312 158.222656 73.359375 157.824219 73.914062 157.449219 C 74.472656 157.074219 75.050781 156.730469 75.644531 156.417969 C 76.238281 156.105469 76.84375 155.820312 77.46875 155.570312 C 78.089844 155.320312 78.726562 155.105469 79.371094 154.917969 C 80.015625 154.734375 80.667969 154.585938 81.332031 154.46875 C 81.992188 154.351562 82.65625 154.269531 83.328125 154.222656 C 83.996094 154.175781 84.667969 154.164062 85.339844 154.183594 C 107.101562 154.082031 128.867188 154.046875 150.628906 154.082031 C 150.714844 155.28125 150.875 156.472656 151.109375 157.652344 C 151.347656 158.832031 151.65625 159.992188 152.042969 161.132812 C 152.425781 162.269531 152.882812 163.382812 153.410156 164.464844 C 153.933594 165.546875 154.527344 166.589844 155.1875 167.59375 C 155.847656 168.601562 156.570312 169.5625 157.351562 170.476562 C 158.136719 171.386719 158.972656 172.25 159.867188 173.054688 C 160.757812 173.863281 161.699219 174.609375 162.6875 175.292969 C 163.675781 175.980469 164.703125 176.601562 165.769531 177.15625 C 170.347656 179.421875 175.1875 180.535156 180.292969 180.503906 C 184.15625 180.535156 188.019531 180.570312 191.878906 180.570312 C 196.503906 180.640625 201.160156 180.640625 205.78125 180.570312 C 205.882812 197.746094 205.882812 214.9375 205.78125 232.136719 Z M 300.390625 150.667969 C 300.425781 151.335938 300.421875 152.007812 300.386719 152.675781 C 300.351562 153.347656 300.285156 154.011719 300.179688 154.675781 C 300.074219 155.335938 299.933594 155.992188 299.761719 156.640625 C 299.589844 157.289062 299.382812 157.925781 299.144531 158.554688 C 298.90625 159.179688 298.636719 159.792969 298.332031 160.390625 C 298.027344 160.988281 297.695312 161.570312 297.332031 162.132812 C 296.96875 162.699219 296.578125 163.242188 296.15625 163.765625 C 295.738281 164.289062 295.292969 164.789062 294.820312 165.265625 C 294.347656 165.742188 293.855469 166.191406 293.335938 166.617188 C 292.816406 167.042969 292.277344 167.441406 291.714844 167.808594 C 291.15625 168.175781 290.578125 168.515625 289.984375 168.824219 C 289.386719 169.132812 288.777344 169.410156 288.152344 169.65625 C 287.53125 169.902344 286.894531 170.113281 286.25 170.292969 C 285.601562 170.472656 284.949219 170.621094 284.285156 170.730469 C 283.625 170.84375 282.960938 170.917969 282.289062 170.960938 C 281.621094 171.003906 280.953125 171.011719 280.28125 170.984375 C 276.730469 171.050781 273.140625 171.121094 269.589844 170.984375 C 268.660156 170.847656 267.742188 170.90625 266.839844 171.152344 C 265.933594 171.394531 265.113281 171.8125 264.382812 172.398438 C 263.691406 173.195312 263.1875 174.097656 262.871094 175.105469 C 262.554688 176.113281 262.445312 177.140625 262.554688 178.191406 C 262.726562 192.058594 263.140625 204.714844 263.207031 207.441406 C 257.046875 202.273438 251.390625 196.605469 246.238281 190.4375 C 241.71875 184.953125 236.167969 180.363281 231.234375 175.257812 C 230.582031 174.527344 229.859375 173.878906 229.058594 173.308594 C 228.261719 172.742188 227.410156 172.269531 226.507812 171.894531 C 225.601562 171.515625 224.667969 171.246094 223.699219 171.082031 C 222.734375 170.914062 221.761719 170.859375 220.785156 170.914062 C 218.957031 170.949219 217.128906 170.984375 215.300781 170.984375 C 212.023438 171.015625 208.78125 171.050781 205.503906 171.050781 C 197.125 171.085938 188.742188 171.015625 180.359375 170.984375 C 169.117188 170.878906 161.597656 164.53125 160.21875 154.082031 C 160.035156 152.90625 159.945312 151.71875 159.941406 150.53125 L 159.941406 144.425781 C 159.875 127.246094 159.839844 110.070312 159.941406 92.894531 C 159.898438 92.226562 159.894531 91.554688 159.921875 90.882812 C 159.949219 90.210938 160.011719 89.542969 160.113281 88.878906 C 160.210938 88.214844 160.34375 87.558594 160.511719 86.910156 C 160.679688 86.257812 160.882812 85.617188 161.117188 84.988281 C 161.351562 84.359375 161.621094 83.746094 161.917969 83.144531 C 162.21875 82.542969 162.550781 81.960938 162.910156 81.394531 C 163.273438 80.828125 163.664062 80.285156 164.082031 79.757812 C 164.5 79.234375 164.945312 78.730469 165.417969 78.253906 C 165.886719 77.777344 166.382812 77.324219 166.902344 76.898438 C 167.421875 76.472656 167.960938 76.074219 168.523438 75.707031 C 169.085938 75.335938 169.664062 74.996094 170.257812 74.691406 C 170.855469 74.382812 171.46875 74.105469 172.09375 73.863281 C 172.71875 73.617188 173.355469 73.40625 174.003906 73.230469 C 174.652344 73.054688 175.308594 72.914062 175.96875 72.804688 C 176.632812 72.695312 177.300781 72.625 177.96875 72.585938 C 178.640625 72.550781 179.3125 72.546875 179.980469 72.578125 C 213.4375 72.40625 246.917969 72.40625 280.417969 72.578125 C 281.089844 72.558594 281.761719 72.570312 282.429688 72.617188 C 283.101562 72.664062 283.765625 72.746094 284.425781 72.863281 C 285.089844 72.976562 285.742188 73.128906 286.386719 73.3125 C 287.03125 73.496094 287.667969 73.714844 288.289062 73.964844 C 288.914062 74.214844 289.519531 74.5 290.113281 74.8125 C 290.707031 75.125 291.285156 75.46875 291.839844 75.84375 C 292.398438 76.214844 292.9375 76.617188 293.453125 77.046875 C 293.96875 77.476562 294.460938 77.933594 294.929688 78.414062 C 295.398438 78.894531 295.839844 79.398438 296.257812 79.925781 C 296.671875 80.453125 297.058594 81 297.417969 81.566406 C 297.777344 82.132812 298.109375 82.71875 298.40625 83.320312 C 298.703125 83.917969 298.972656 84.535156 299.207031 85.164062 C 299.441406 85.792969 299.640625 86.433594 299.808594 87.082031 C 299.976562 87.734375 300.109375 88.390625 300.210938 89.054688 C 300.308594 89.71875 300.375 90.386719 300.402344 91.054688 C 300.433594 91.726562 300.429688 92.398438 300.390625 93.066406 C 300.492188 112.277344 300.492188 131.480469 300.390625 150.667969 Z M 279.761719 109.351562 L 182.019531 109.351562 C 181.679688 109.351562 181.34375 109.316406 181.011719 109.25 C 180.675781 109.183594 180.355469 109.085938 180.039062 108.957031 C 179.726562 108.828125 179.429688 108.667969 179.144531 108.480469 C 178.863281 108.289062 178.601562 108.074219 178.363281 107.835938 C 178.121094 107.59375 177.90625 107.332031 177.71875 107.050781 C 177.53125 106.769531 177.371094 106.46875 177.238281 106.15625 C 177.109375 105.84375 177.011719 105.519531 176.945312 105.1875 C 176.878906 104.851562 176.847656 104.515625 176.847656 104.175781 C 176.847656 103.835938 176.878906 103.5 176.945312 103.167969 C 177.011719 102.835938 177.109375 102.511719 177.238281 102.195312 C 177.371094 101.882812 177.53125 101.585938 177.71875 101.300781 C 177.90625 101.019531 178.121094 100.757812 178.363281 100.519531 C 178.601562 100.277344 178.863281 100.0625 179.144531 99.875 C 179.429688 99.6875 179.726562 99.527344 180.039062 99.398438 C 180.355469 99.265625 180.675781 99.167969 181.011719 99.101562 C 181.34375 99.035156 181.679688 99.003906 182.019531 99.003906 L 279.761719 99.003906 C 280.101562 99.003906 280.4375 99.035156 280.769531 99.101562 C 281.101562 99.167969 281.425781 99.265625 281.742188 99.398438 C 282.054688 99.527344 282.351562 99.6875 282.636719 99.875 C 282.917969 100.0625 283.179688 100.277344 283.417969 100.519531 C 283.660156 100.757812 283.875 101.019531 284.0625 101.300781 C 284.25 101.585938 284.410156 101.882812 284.539062 102.195312 C 284.671875 102.511719 284.769531 102.835938 284.835938 103.167969 C 284.902344 103.5 284.933594 103.835938 284.933594 104.175781 C 284.933594 104.515625 284.902344 104.851562 284.835938 105.1875 C 284.769531 105.519531 284.671875 105.84375 284.539062 106.15625 C 284.410156 106.46875 284.25 106.769531 284.0625 107.050781 C 283.875 107.332031 283.660156 107.59375 283.417969 107.835938 C 283.179688 108.074219 282.917969 108.289062 282.636719 108.480469 C 282.351562 108.667969 282.054688 108.828125 281.742188 108.957031 C 281.425781 109.085938 281.101562 109.183594 280.769531 109.25 C 280.4375 109.316406 280.101562 109.351562 279.761719 109.351562 Z M 244.851562 136.777344 L 185.011719 136.777344 C 184.675781 136.777344 184.335938 136.746094 184.003906 136.679688 C 183.671875 136.613281 183.347656 136.515625 183.035156 136.382812 C 182.71875 136.253906 182.421875 136.09375 182.140625 135.90625 C 181.855469 135.71875 181.59375 135.503906 181.355469 135.261719 C 181.113281 135.023438 180.902344 134.761719 180.710938 134.480469 C 180.523438 134.195312 180.363281 133.898438 180.234375 133.585938 C 180.105469 133.269531 180.003906 132.945312 179.9375 132.613281 C 179.875 132.28125 179.839844 131.945312 179.839844 131.605469 C 179.839844 131.265625 179.875 130.929688 179.9375 130.59375 C 180.003906 130.261719 180.105469 129.9375 180.234375 129.625 C 180.363281 129.308594 180.523438 129.011719 180.710938 128.730469 C 180.902344 128.449219 181.113281 128.1875 181.355469 127.945312 C 181.59375 127.707031 181.855469 127.492188 182.140625 127.300781 C 182.421875 127.113281 182.71875 126.953125 183.035156 126.824219 C 183.347656 126.695312 183.671875 126.597656 184.003906 126.53125 C 184.335938 126.464844 184.675781 126.429688 185.011719 126.429688 L 244.851562 126.429688 C 245.191406 126.429688 245.527344 126.464844 245.863281 126.53125 C 246.195312 126.597656 246.519531 126.695312 246.832031 126.824219 C 247.144531 126.953125 247.445312 127.113281 247.726562 127.300781 C 248.007812 127.492188 248.269531 127.707031 248.511719 127.945312 C 248.75 128.1875 248.964844 128.449219 249.152344 128.730469 C 249.34375 129.011719 249.503906 129.308594 249.632812 129.625 C 249.761719 129.9375 249.859375 130.261719 249.925781 130.59375 C 249.992188 130.929688 250.027344 131.265625 250.027344 131.605469 C 250.027344 131.945312 249.992188 132.28125 249.925781 132.613281 C 249.859375 132.945312 249.761719 133.269531 249.632812 133.585938 C 249.503906 133.898438 249.34375 134.195312 249.152344 134.480469 C 248.964844 134.761719 248.75 135.023438 248.511719 135.261719 C 248.269531 135.503906 248.007812 135.71875 247.726562 135.90625 C 247.445312 136.09375 247.144531 136.253906 246.832031 136.382812 C 246.519531 136.515625 246.195312 136.613281 245.863281 136.679688 C 245.527344 136.746094 245.191406 136.777344 244.851562 136.777344 Z M 183.71875 222 L 85.976562 222 C 85.636719 222 85.300781 221.96875 84.964844 221.902344 C 84.632812 221.835938 84.308594 221.738281 83.996094 221.609375 C 83.683594 221.476562 83.382812 221.320312 83.101562 221.128906 C 82.820312 220.941406 82.558594 220.726562 82.316406 220.488281 C 82.078125 220.246094 81.863281 219.984375 81.675781 219.703125 C 81.484375 219.421875 81.328125 219.121094 81.195312 218.808594 C 81.066406 218.496094 80.96875 218.171875 80.902344 217.835938 C 80.835938 217.503906 80.800781 217.167969 80.800781 216.828125 C 80.800781 216.488281 80.835938 216.152344 80.902344 215.820312 C 80.96875 215.484375 81.066406 215.160156 81.195312 214.847656 C 81.328125 214.535156 81.484375 214.234375 81.675781 213.953125 C 81.863281 213.671875 82.078125 213.410156 82.316406 213.167969 C 82.558594 212.929688 82.820312 212.714844 83.101562 212.527344 C 83.382812 212.335938 83.683594 212.179688 83.996094 212.046875 C 84.308594 211.917969 84.632812 211.820312 84.964844 211.753906 C 85.300781 211.6875 85.636719 211.65625 85.976562 211.65625 L 183.71875 211.65625 C 184.054688 211.65625 184.394531 211.6875 184.726562 211.753906 C 185.058594 211.820312 185.382812 211.917969 185.695312 212.046875 C 186.011719 212.179688 186.308594 212.335938 186.589844 212.527344 C 186.875 212.714844 187.136719 212.929688 187.375 213.167969 C 187.617188 213.410156 187.828125 213.671875 188.019531 213.953125 C 188.207031 214.234375 188.367188 214.535156 188.496094 214.847656 C 188.625 215.160156 188.726562 215.484375 188.792969 215.820312 C 188.855469 216.152344 188.890625 216.488281 188.890625 216.828125 C 188.890625 217.167969 188.855469 217.503906 188.792969 217.835938 C 188.726562 218.171875 188.625 218.496094 188.496094 218.808594 C 188.367188 219.121094 188.207031 219.421875 188.019531 219.703125 C 187.828125 219.984375 187.617188 220.246094 187.375 220.488281 C 187.136719 220.726562 186.875 220.941406 186.589844 221.128906 C 186.308594 221.320312 186.011719 221.476562 185.695312 221.609375 C 185.382812 221.738281 185.058594 221.835938 184.726562 221.902344 C 184.394531 221.96875 184.054688 222 183.71875 222 Z M 86.394531 183.882812 L 146.230469 183.882812 C 146.570312 183.882812 146.90625 183.914062 147.242188 183.980469 C 147.574219 184.046875 147.898438 184.144531 148.210938 184.277344 C 148.527344 184.40625 148.824219 184.566406 149.105469 184.753906 C 149.390625 184.941406 149.648438 185.15625 149.890625 185.398438 C 150.128906 185.636719 150.34375 185.898438 150.535156 186.179688 C 150.722656 186.464844 150.882812 186.761719 151.011719 187.074219 C 151.140625 187.390625 151.238281 187.714844 151.304688 188.046875 C 151.371094 188.378906 151.40625 188.714844 151.40625 189.054688 C 151.40625 189.394531 151.371094 189.730469 151.304688 190.066406 C 151.238281 190.398438 151.140625 190.722656 151.011719 191.035156 C 150.882812 191.351562 150.722656 191.648438 150.535156 191.929688 C 150.34375 192.210938 150.128906 192.472656 149.890625 192.714844 C 149.648438 192.953125 149.390625 193.167969 149.105469 193.359375 C 148.824219 193.546875 148.527344 193.707031 148.210938 193.835938 C 147.898438 193.964844 147.574219 194.0625 147.242188 194.128906 C 146.90625 194.195312 146.570312 194.230469 146.230469 194.230469 L 86.394531 194.230469 C 86.054688 194.230469 85.71875 194.195312 85.382812 194.128906 C 85.050781 194.0625 84.726562 193.964844 84.414062 193.835938 C 84.101562 193.707031 83.800781 193.546875 83.519531 193.359375 C 83.238281 193.167969 82.976562 192.953125 82.734375 192.714844 C 82.496094 192.472656 82.28125 192.210938 82.089844 191.929688 C 81.902344 191.648438 81.742188 191.351562 81.613281 191.035156 C 81.484375 190.722656 81.386719 190.398438 81.320312 190.066406 C 81.253906 189.730469 81.21875 189.394531 81.21875 189.054688 C 81.21875 188.714844 81.253906 188.378906 81.320312 188.046875 C 81.386719 187.714844 81.484375 187.390625 81.613281 187.074219 C 81.742188 186.761719 81.902344 186.464844 82.089844 186.179688 C 82.28125 185.898438 82.496094 185.636719 82.734375 185.398438 C 82.976562 185.15625 83.238281 184.941406 83.519531 184.753906 C 83.800781 184.566406 84.101562 184.40625 84.414062 184.277344 C 84.726562 184.144531 85.050781 184.046875 85.382812 183.980469 C 85.71875 183.914062 86.054688 183.882812 86.394531 183.882812 Z M 86.394531 183.882812 " fill-opacity="1" fill-rule="nonzero"/></g></svg>