<svg xmlns="http://www.w3.org/2000/svg" xmlns:xlink="http://www.w3.org/1999/xlink" width="500" zoomAndPan="magnify" viewBox="0 0 375 374.999991" height="500" preserveAspectRatio="xMidYMid meet" version="1.0"><defs><clipPath id="da7a8ce8b7"><path d="M 0 0 L 374.527344 0 L 374.527344 374.527344 L 0 374.527344 Z M 0 0 " clip-rule="nonzero"/></clipPath><clipPath id="4140420a9c"><path d="M 187.496094 0 C 83.945312 0 0 83.945312 0 187.496094 C 0 291.046875 83.945312 374.992188 187.496094 374.992188 C 291.046875 374.992188 374.992188 291.046875 374.992188 187.496094 C 374.992188 83.945312 291.046875 0 187.496094 0 Z M 187.496094 0 " clip-rule="nonzero"/></clipPath><clipPath id="d92c6ddc77"><path d="M 59.164062 93 L 316 93 L 316 284.382812 L 59.164062 284.382812 Z M 59.164062 93 " clip-rule="nonzero"/></clipPath></defs><g clip-path="url(#da7a8ce8b7)"><g clip-path="url(#4140420a9c)"><path stroke-linecap="butt" transform="matrix(1.863325, 0, 0, 1.863325, 0.0000045, -0.000000000000180193)" fill="none" stroke-linejoin="miter" d="M 100.624485 0.000000000000096705 C 45.051358 0.000000000000096705 -0.00000241504 45.05136 -0.00000241504 100.624487 C -0.00000241504 156.197614 45.051358 201.248974 100.624485 201.248974 C 156.197612 201.248974 201.248972 156.197614 201.248972 100.624487 C 201.248972 45.05136 156.197612 0.000000000000096705 100.624485 0.000000000000096705 Z M 100.624485 0.000000000000096705 " stroke="#356bb4" stroke-width="4.025063" stroke-opacity="1" stroke-miterlimit="4"/></g></g><g clip-path="url(#d92c6ddc77)"><path fill="#507dbb" d="M 314.582031 224.140625 L 298.542969 143.21875 C 297.34375 137.125 293.84375 131.878906 288.683594 128.4375 C 283.519531 124.996094 277.34375 123.765625 271.25 124.96875 L 269.476562 125.324219 L 264.367188 109.503906 C 260.433594 97.320312 247.34375 90.597656 235.160156 94.53125 L 76.042969 145.867188 C 70.144531 147.78125 65.335938 151.851562 62.519531 157.371094 C 59.707031 162.890625 59.1875 169.171875 61.101562 175.074219 L 86.425781 253.59375 C 89.351562 262.636719 97.300781 268.648438 106.179688 269.550781 C 109.648438 278.566406 118.390625 284.382812 127.84375 284.382812 C 129.320312 284.382812 130.851562 284.246094 132.351562 283.949219 L 296.359375 251.4375 C 302.453125 250.234375 307.695312 246.738281 311.140625 241.574219 C 314.554688 236.410156 315.785156 230.207031 314.582031 224.140625 Z M 271.851562 127.917969 C 277.152344 126.878906 282.535156 127.945312 287.015625 130.953125 C 291.496094 133.957031 294.554688 138.519531 295.59375 143.820312 L 297.34375 152.617188 L 279.449219 156.195312 L 270.429688 128.21875 Z M 63.941406 174.144531 C 62.273438 169.007812 62.738281 163.546875 65.199219 158.738281 C 67.65625 153.929688 71.835938 150.375 76.972656 148.710938 L 236.117188 97.402344 C 238.164062 96.746094 240.242188 96.417969 242.292969 96.417969 C 250.816406 96.417969 258.765625 101.882812 261.523438 110.433594 L 264.285156 118.984375 L 66.753906 182.886719 Z M 108.636719 266.652344 C 108.335938 266.652344 108.039062 266.652344 107.738281 266.625 C 107.710938 266.625 107.710938 266.625 107.683594 266.625 C 99.457031 266.296875 91.917969 260.914062 89.242188 252.636719 L 74.652344 207.394531 L 272.179688 143.492188 L 286.824219 188.925781 C 286.988281 189.417969 287.125 189.910156 287.234375 190.375 C 287.289062 190.539062 287.316406 190.730469 287.371094 190.894531 C 287.398438 190.976562 287.398438 191.058594 287.425781 191.140625 C 287.480469 191.410156 287.535156 191.65625 287.5625 191.929688 C 289.007812 200.917969 284.171875 209.882812 275.785156 213.597656 C 275.757812 213.597656 275.757812 213.625 275.730469 213.625 C 275.484375 213.734375 275.238281 213.84375 274.992188 213.925781 C 274.910156 213.953125 274.855469 213.980469 274.777344 214.007812 C 274.558594 214.089844 274.367188 214.144531 274.148438 214.226562 C 274.039062 214.253906 273.929688 214.308594 273.792969 214.335938 L 114.648438 265.640625 C 114.320312 265.75 114.019531 265.832031 113.691406 265.914062 C 113.609375 265.941406 113.527344 265.941406 113.445312 265.96875 C 113.199219 266.023438 112.953125 266.078125 112.734375 266.132812 C 112.65625 266.160156 112.546875 266.160156 112.464844 266.1875 C 112.21875 266.242188 112 266.269531 111.753906 266.324219 C 111.671875 266.351562 111.589844 266.351562 111.507812 266.351562 C 111.261719 266.378906 111.015625 266.433594 110.769531 266.460938 C 110.6875 266.460938 110.632812 266.488281 110.550781 266.488281 C 110.277344 266.515625 110.003906 266.542969 109.757812 266.542969 C 109.703125 266.542969 109.648438 266.542969 109.59375 266.542969 C 109.320312 266.570312 109.019531 266.570312 108.746094 266.570312 C 108.71875 266.652344 108.691406 266.652344 108.636719 266.652344 Z M 308.597656 239.878906 C 305.59375 244.359375 301.03125 247.417969 295.730469 248.457031 L 131.722656 280.96875 C 122.515625 282.800781 113.308594 277.992188 109.457031 269.632812 C 110.03125 269.605469 110.605469 269.550781 111.152344 269.496094 C 111.152344 269.496094 111.152344 269.496094 111.179688 269.496094 C 111.453125 269.46875 111.726562 269.414062 112 269.386719 C 112.054688 269.386719 112.109375 269.359375 112.164062 269.359375 C 112.382812 269.332031 112.601562 269.277344 112.816406 269.25 C 112.898438 269.222656 112.980469 269.222656 113.0625 269.195312 C 113.253906 269.140625 113.472656 269.113281 113.664062 269.058594 C 113.746094 269.03125 113.828125 269.03125 113.910156 269.003906 C 114.128906 268.949219 114.320312 268.894531 114.539062 268.839844 C 114.621094 268.8125 114.675781 268.8125 114.757812 268.785156 C 115.03125 268.703125 115.304688 268.621094 115.605469 268.539062 L 274.75 217.230469 C 275.101562 217.121094 275.457031 216.984375 275.8125 216.847656 C 275.8125 216.847656 275.839844 216.847656 275.839844 216.820312 C 276.167969 216.710938 276.46875 216.574219 276.796875 216.4375 C 276.851562 216.410156 276.90625 216.382812 276.960938 216.382812 C 277.234375 216.273438 277.480469 216.136719 277.753906 216.027344 C 277.890625 215.972656 278.027344 215.890625 278.136719 215.835938 C 278.328125 215.753906 278.492188 215.644531 278.65625 215.5625 C 278.929688 215.425781 279.175781 215.261719 279.449219 215.125 C 279.476562 215.097656 279.527344 215.070312 279.554688 215.042969 C 283.246094 212.832031 286.25 209.636719 288.273438 205.726562 C 290.265625 201.820312 291.113281 197.53125 290.757812 193.242188 C 290.757812 193.132812 290.730469 193.023438 290.730469 192.914062 C 290.703125 192.667969 290.675781 192.449219 290.648438 192.203125 C 290.621094 191.957031 290.59375 191.710938 290.539062 191.4375 C 290.511719 191.359375 290.511719 191.25 290.484375 191.167969 C 290.429688 190.867188 290.375 190.539062 290.292969 190.238281 C 290.292969 190.210938 290.265625 190.183594 290.265625 190.128906 C 290.101562 189.417969 289.910156 188.679688 289.691406 187.96875 L 287.398438 180.839844 L 302.34375 177.859375 L 311.632812 224.6875 C 312.667969 230.015625 311.605469 235.398438 308.597656 239.878906 Z M 308.597656 239.878906 " fill-opacity="1" fill-rule="nonzero"/></g><path fill="#507dbb" d="M 85.285156 218.652344 L 187.273438 184.304688 L 188.234375 187.152344 L 86.246094 221.5 Z M 85.285156 218.652344 " fill-opacity="1" fill-rule="nonzero"/><path fill="#507dbb" d="M 90.074219 232.988281 L 230.800781 186.734375 L 231.738281 189.589844 L 91.015625 235.84375 Z M 90.074219 232.988281 " fill-opacity="1" fill-rule="nonzero"/></svg>