<svg xmlns="http://www.w3.org/2000/svg" xmlns:xlink="http://www.w3.org/1999/xlink" width="500" zoomAndPan="magnify" viewBox="0 0 375 374.999991" height="500" preserveAspectRatio="xMidYMid meet" version="1.0"><defs><clipPath id="8dea0e592d"><path d="M 4 0 L 370.734375 0 L 370.734375 375 L 4 375 Z M 4 0 " clip-rule="nonzero"/></clipPath></defs><g clip-path="url(#8dea0e592d)"><path fill="#507dbb" d="M 369.464844 262.546875 L 337.214844 193.535156 L 337.214844 81.363281 C 337.214844 80.484375 337.046875 79.636719 336.710938 78.824219 C 336.375 78.011719 335.894531 77.292969 335.273438 76.671875 L 276.742188 18.125 C 276.121094 17.503906 275.402344 17.023438 274.589844 16.6875 C 273.777344 16.347656 272.929688 16.179688 272.050781 16.179688 L 235.707031 16.179688 L 226.703125 10.746094 C 225.949219 10.292969 225.136719 9.996094 224.269531 9.867188 C 223.398438 9.734375 222.535156 9.769531 221.679688 9.980469 L 213.171875 12.074219 L 181.007812 0.402344 C 180.179688 0.101562 179.328125 -0.0273438 178.445312 0.0117188 C 177.566406 0.0507812 176.730469 0.257812 175.933594 0.628906 L 142.609375 16.195312 L 85.191406 16.195312 C 84.753906 16.195312 84.324219 16.238281 83.894531 16.324219 C 83.46875 16.410156 83.054688 16.535156 82.648438 16.703125 C 82.246094 16.867188 81.863281 17.074219 81.503906 17.316406 C 81.140625 17.558594 80.804688 17.832031 80.496094 18.140625 C 80.1875 18.449219 79.914062 18.785156 79.671875 19.144531 C 79.429688 19.507812 79.226562 19.890625 79.058594 20.292969 C 78.890625 20.695312 78.765625 21.113281 78.679688 21.539062 C 78.59375 21.964844 78.550781 22.398438 78.550781 22.835938 L 78.550781 45.1875 L 42.496094 54.066406 C 42.070312 54.171875 41.664062 54.316406 41.269531 54.5 C 40.871094 54.683594 40.5 54.90625 40.148438 55.164062 C 39.796875 55.421875 39.476562 55.710938 39.179688 56.03125 C 38.886719 56.355469 38.628906 56.699219 38.402344 57.074219 C 38.175781 57.445312 37.988281 57.835938 37.839844 58.246094 C 37.691406 58.65625 37.585938 59.078125 37.519531 59.507812 C 37.453125 59.9375 37.429688 60.371094 37.449219 60.808594 C 37.46875 61.242188 37.53125 61.671875 37.636719 62.09375 L 38.332031 64.914062 L 8.742188 78.753906 C 8.34375 78.9375 7.972656 79.160156 7.621094 79.417969 C 7.269531 79.675781 6.945312 79.964844 6.652344 80.285156 C 6.359375 80.609375 6.097656 80.957031 5.871094 81.328125 C 5.644531 81.703125 5.457031 82.09375 5.308594 82.503906 C 5.160156 82.914062 5.054688 83.332031 4.988281 83.765625 C 4.921875 84.195312 4.898438 84.628906 4.917969 85.0625 C 4.9375 85.5 5 85.929688 5.105469 86.351562 C 5.207031 86.773438 5.351562 87.183594 5.539062 87.578125 L 78.558594 243.839844 L 78.558594 339.328125 C 78.558594 339.765625 78.597656 340.195312 78.683594 340.621094 C 78.769531 341.050781 78.894531 341.464844 79.0625 341.867188 C 79.226562 342.269531 79.433594 342.652344 79.675781 343.015625 C 79.917969 343.375 80.191406 343.710938 80.5 344.019531 C 80.808594 344.328125 81.144531 344.601562 81.503906 344.84375 C 81.867188 345.085938 82.25 345.289062 82.652344 345.457031 C 83.054688 345.625 83.46875 345.75 83.894531 345.835938 C 84.324219 345.921875 84.753906 345.960938 85.191406 345.960938 L 107.445312 345.960938 L 112.277344 365.636719 C 112.382812 366.058594 112.527344 366.46875 112.710938 366.863281 C 112.894531 367.257812 113.117188 367.628906 113.375 367.980469 C 113.632812 368.332031 113.921875 368.65625 114.242188 368.949219 C 114.566406 369.242188 114.914062 369.503906 115.285156 369.726562 C 115.65625 369.953125 116.050781 370.140625 116.457031 370.289062 C 116.867188 370.4375 117.289062 370.542969 117.71875 370.609375 C 118.148438 370.675781 118.582031 370.699219 119.019531 370.679688 C 119.453125 370.660156 119.882812 370.597656 120.304688 370.492188 L 135.941406 366.648438 L 137.867188 370.769531 C 138.050781 371.167969 138.273438 371.539062 138.527344 371.890625 C 138.785156 372.246094 139.074219 372.570312 139.394531 372.863281 C 139.71875 373.160156 140.0625 373.417969 140.4375 373.648438 C 140.808594 373.875 141.199219 374.0625 141.609375 374.210938 C 142.019531 374.359375 142.441406 374.46875 142.871094 374.535156 C 143.300781 374.601562 143.734375 374.625 144.171875 374.609375 C 144.605469 374.589844 145.035156 374.527344 145.460938 374.425781 C 145.882812 374.320312 146.292969 374.175781 146.6875 373.992188 L 191.734375 352.941406 L 220.019531 345.984375 L 330.578125 345.984375 C 331.015625 345.984375 331.445312 345.941406 331.875 345.855469 C 332.300781 345.769531 332.714844 345.644531 333.117188 345.476562 C 333.519531 345.3125 333.902344 345.105469 334.265625 344.863281 C 334.628906 344.621094 334.964844 344.347656 335.269531 344.039062 C 335.578125 343.730469 335.855469 343.398438 336.097656 343.035156 C 336.339844 342.671875 336.542969 342.289062 336.710938 341.886719 C 336.875 341.484375 337 341.070312 337.085938 340.644531 C 337.171875 340.214844 337.214844 339.785156 337.214844 339.347656 L 337.214844 317.140625 L 355.65625 312.597656 C 356.082031 312.496094 356.488281 312.351562 356.886719 312.167969 C 357.28125 311.984375 357.652344 311.761719 358.003906 311.503906 C 358.355469 311.246094 358.675781 310.957031 358.972656 310.632812 C 359.265625 310.3125 359.527344 309.964844 359.75 309.59375 C 359.976562 309.21875 360.164062 308.828125 360.3125 308.417969 C 360.460938 308.007812 360.566406 307.589844 360.632812 307.160156 C 360.699219 306.726562 360.722656 306.292969 360.703125 305.859375 C 360.683594 305.425781 360.621094 304.996094 360.515625 304.570312 L 353.78125 277.183594 L 366.265625 271.347656 C 366.664062 271.164062 367.035156 270.945312 367.390625 270.6875 C 367.742188 270.429688 368.0625 270.140625 368.359375 269.820312 C 368.65625 269.5 368.914062 269.152344 369.140625 268.78125 C 369.367188 268.40625 369.558594 268.015625 369.707031 267.605469 C 369.855469 267.195312 369.964844 266.777344 370.03125 266.347656 C 370.097656 265.914062 370.121094 265.480469 370.105469 265.046875 C 370.085938 264.609375 370.023438 264.179688 369.921875 263.757812 C 369.816406 263.332031 369.675781 262.921875 369.488281 262.527344 Z M 278.683594 38.851562 L 314.558594 74.726562 L 278.683594 74.726562 Z M 179.0625 13.8125 L 185.628906 16.195312 L 173.945312 16.195312 Z M 78.558594 58.855469 L 78.558594 172.964844 L 52.089844 65.371094 Z M 41.546875 78.074219 L 70.226562 194.652344 L 20.371094 87.96875 Z M 121.117188 345.960938 L 164.46875 345.960938 L 123.589844 356.03125 Z M 91.832031 332.671875 L 91.832031 29.46875 L 265.414062 29.46875 L 265.414062 81.363281 C 265.414062 81.800781 265.453125 82.230469 265.539062 82.660156 C 265.625 83.085938 265.75 83.5 265.917969 83.902344 C 266.085938 84.304688 266.289062 84.6875 266.53125 85.050781 C 266.773438 85.414062 267.046875 85.75 267.355469 86.054688 C 267.664062 86.363281 268 86.640625 268.363281 86.882812 C 268.726562 87.125 269.109375 87.328125 269.511719 87.496094 C 269.914062 87.660156 270.328125 87.785156 270.753906 87.871094 C 271.183594 87.957031 271.613281 88 272.050781 88 L 323.941406 88 L 323.941406 332.707031 Z M 337.214844 303.449219 L 337.214844 265.441406 L 346.042969 301.289062 Z M 350.550781 264.039062 L 345.023438 241.59375 L 354.628906 262.136719 Z M 111.695312 86.464844 C 111.695312 86.027344 111.738281 85.597656 111.820312 85.167969 C 111.90625 84.742188 112.03125 84.328125 112.199219 83.925781 C 112.367188 83.519531 112.570312 83.140625 112.8125 82.777344 C 113.054688 82.414062 113.332031 82.078125 113.640625 81.769531 C 113.945312 81.464844 114.28125 81.1875 114.644531 80.945312 C 115.007812 80.703125 115.390625 80.5 115.792969 80.332031 C 116.195312 80.167969 116.609375 80.042969 117.039062 79.957031 C 117.464844 79.871094 117.898438 79.828125 118.332031 79.828125 L 174.695312 79.828125 C 175.125 79.839844 175.546875 79.890625 175.964844 79.984375 C 176.386719 80.078125 176.792969 80.210938 177.183594 80.378906 C 177.578125 80.550781 177.953125 80.761719 178.304688 81.003906 C 178.65625 81.246094 178.984375 81.523438 179.28125 81.828125 C 179.582031 82.136719 179.851562 82.46875 180.085938 82.828125 C 180.320312 83.1875 180.519531 83.566406 180.679688 83.964844 C 180.839844 84.359375 180.964844 84.769531 181.046875 85.191406 C 181.128906 85.613281 181.167969 86.035156 181.167969 86.464844 C 181.167969 86.894531 181.128906 87.320312 181.046875 87.742188 C 180.964844 88.160156 180.839844 88.570312 180.679688 88.96875 C 180.519531 89.367188 180.320312 89.742188 180.085938 90.101562 C 179.851562 90.460938 179.582031 90.792969 179.28125 91.101562 C 178.984375 91.40625 178.65625 91.683594 178.304688 91.925781 C 177.953125 92.171875 177.578125 92.378906 177.183594 92.550781 C 176.792969 92.722656 176.386719 92.855469 175.964844 92.945312 C 175.546875 93.039062 175.125 93.089844 174.695312 93.101562 L 118.335938 93.101562 C 117.902344 93.101562 117.46875 93.058594 117.042969 92.972656 C 116.617188 92.890625 116.203125 92.765625 115.800781 92.597656 C 115.398438 92.433594 115.015625 92.226562 114.65625 91.988281 C 114.292969 91.746094 113.957031 91.472656 113.648438 91.164062 C 113.339844 90.855469 113.066406 90.523438 112.824219 90.160156 C 112.582031 89.800781 112.375 89.417969 112.210938 89.019531 C 112.042969 88.617188 111.914062 88.203125 111.828125 87.777344 C 111.742188 87.347656 111.699219 86.917969 111.699219 86.484375 Z M 111.695312 113.832031 C 111.695312 113.398438 111.738281 112.964844 111.820312 112.539062 C 111.90625 112.109375 112.03125 111.695312 112.199219 111.292969 C 112.367188 110.890625 112.570312 110.507812 112.8125 110.144531 C 113.054688 109.785156 113.332031 109.449219 113.640625 109.140625 C 113.945312 108.832031 114.28125 108.558594 114.644531 108.316406 C 115.007812 108.074219 115.390625 107.871094 115.792969 107.703125 C 116.195312 107.535156 116.609375 107.410156 117.039062 107.324219 C 117.464844 107.242188 117.898438 107.199219 118.332031 107.199219 L 220.125 107.199219 C 220.5625 107.199219 220.996094 107.242188 221.421875 107.328125 C 221.851562 107.410156 222.265625 107.539062 222.667969 107.707031 C 223.074219 107.871094 223.457031 108.078125 223.820312 108.320312 C 224.179688 108.5625 224.515625 108.835938 224.824219 109.144531 C 225.132812 109.453125 225.410156 109.789062 225.652344 110.152344 C 225.894531 110.515625 226.097656 110.898438 226.265625 111.300781 C 226.433594 111.707031 226.558594 112.121094 226.644531 112.546875 C 226.730469 112.976562 226.773438 113.410156 226.773438 113.84375 C 226.773438 114.28125 226.730469 114.714844 226.644531 115.140625 C 226.558594 115.570312 226.433594 115.984375 226.265625 116.390625 C 226.097656 116.792969 225.894531 117.175781 225.652344 117.539062 C 225.410156 117.902344 225.132812 118.234375 224.824219 118.542969 C 224.515625 118.851562 224.179688 119.128906 223.820312 119.371094 C 223.457031 119.613281 223.074219 119.820312 222.667969 119.984375 C 222.265625 120.152344 221.851562 120.277344 221.421875 120.363281 C 220.996094 120.449219 220.5625 120.492188 220.125 120.492188 L 118.335938 120.492188 C 117.902344 120.492188 117.46875 120.449219 117.042969 120.363281 C 116.613281 120.277344 116.199219 120.152344 115.796875 119.984375 C 115.394531 119.820312 115.011719 119.613281 114.648438 119.371094 C 114.285156 119.128906 113.949219 118.855469 113.644531 118.546875 C 113.335938 118.238281 113.058594 117.902344 112.816406 117.542969 C 112.574219 117.179688 112.371094 116.796875 112.203125 116.394531 C 112.035156 115.992188 111.910156 115.574219 111.824219 115.148438 C 111.742188 114.722656 111.699219 114.289062 111.699219 113.851562 Z M 304.070312 150.597656 C 304.070312 151.03125 304.03125 151.464844 303.945312 151.890625 C 303.859375 152.320312 303.734375 152.734375 303.566406 153.136719 C 303.398438 153.539062 303.195312 153.921875 302.953125 154.285156 C 302.710938 154.644531 302.4375 154.980469 302.128906 155.289062 C 301.820312 155.597656 301.484375 155.875 301.121094 156.117188 C 300.757812 156.359375 300.378906 156.5625 299.972656 156.730469 C 299.570312 156.894531 299.15625 157.023438 298.730469 157.105469 C 298.300781 157.191406 297.871094 157.234375 297.433594 157.234375 L 118.335938 157.234375 C 117.898438 157.234375 117.46875 157.191406 117.039062 157.105469 C 116.613281 157.019531 116.195312 156.894531 115.792969 156.726562 C 115.390625 156.5625 115.007812 156.355469 114.644531 156.113281 C 114.28125 155.871094 113.945312 155.597656 113.636719 155.289062 C 113.328125 154.980469 113.054688 154.644531 112.808594 154.28125 C 112.566406 153.917969 112.363281 153.535156 112.195312 153.132812 C 112.027344 152.726562 111.902344 152.3125 111.816406 151.882812 C 111.734375 151.457031 111.691406 151.023438 111.691406 150.589844 C 111.691406 150.152344 111.734375 149.71875 111.816406 149.292969 C 111.902344 148.863281 112.027344 148.449219 112.195312 148.042969 C 112.363281 147.640625 112.566406 147.257812 112.808594 146.894531 C 113.054688 146.53125 113.328125 146.195312 113.636719 145.886719 C 113.945312 145.578125 114.28125 145.304688 114.644531 145.0625 C 115.007812 144.820312 115.390625 144.613281 115.792969 144.449219 C 116.195312 144.28125 116.613281 144.15625 117.039062 144.070312 C 117.46875 143.984375 117.898438 143.941406 118.335938 143.941406 L 297.4375 143.941406 C 297.875 143.941406 298.308594 143.984375 298.738281 144.070312 C 299.167969 144.15625 299.582031 144.28125 299.988281 144.449219 C 300.390625 144.617188 300.773438 144.824219 301.136719 145.066406 C 301.5 145.3125 301.835938 145.589844 302.144531 145.898438 C 302.453125 146.210938 302.726562 146.546875 302.96875 146.910156 C 303.210938 147.277344 303.414062 147.660156 303.582031 148.066406 C 303.746094 148.46875 303.871094 148.886719 303.953125 149.316406 C 304.039062 149.746094 304.078125 150.179688 304.078125 150.617188 Z M 304.070312 181.027344 C 304.074219 181.464844 304.035156 181.898438 303.953125 182.328125 C 303.867188 182.757812 303.746094 183.171875 303.578125 183.578125 C 303.414062 183.984375 303.210938 184.367188 302.96875 184.730469 C 302.726562 185.097656 302.453125 185.433594 302.144531 185.742188 C 301.835938 186.054688 301.5 186.332031 301.136719 186.574219 C 300.773438 186.820312 300.390625 187.023438 299.984375 187.191406 C 299.582031 187.359375 299.167969 187.488281 298.738281 187.574219 C 298.308594 187.660156 297.875 187.703125 297.4375 187.703125 L 118.335938 187.703125 C 117.898438 187.703125 117.46875 187.660156 117.039062 187.574219 C 116.613281 187.488281 116.195312 187.363281 115.792969 187.195312 C 115.390625 187.027344 115.007812 186.824219 114.644531 186.582031 C 114.28125 186.339844 113.945312 186.0625 113.636719 185.753906 C 113.328125 185.445312 113.054688 185.109375 112.808594 184.746094 C 112.566406 184.386719 112.363281 184 112.195312 183.597656 C 112.027344 183.195312 111.902344 182.78125 111.816406 182.351562 C 111.734375 181.925781 111.691406 181.492188 111.691406 181.054688 C 111.691406 180.617188 111.734375 180.1875 111.816406 179.757812 C 111.902344 179.332031 112.027344 178.914062 112.195312 178.511719 C 112.363281 178.109375 112.566406 177.726562 112.808594 177.363281 C 113.054688 177 113.328125 176.664062 113.636719 176.355469 C 113.945312 176.046875 114.28125 175.773438 114.644531 175.527344 C 115.007812 175.285156 115.390625 175.082031 115.792969 174.914062 C 116.195312 174.75 116.613281 174.621094 117.039062 174.535156 C 117.46875 174.453125 117.898438 174.410156 118.335938 174.410156 L 297.4375 174.410156 C 297.875 174.410156 298.304688 174.453125 298.734375 174.535156 C 299.160156 174.621094 299.574219 174.746094 299.980469 174.914062 C 300.382812 175.082031 300.765625 175.285156 301.125 175.527344 C 301.488281 175.769531 301.824219 176.046875 302.132812 176.351562 C 302.441406 176.660156 302.714844 176.996094 302.957031 177.359375 C 303.199219 177.722656 303.402344 178.105469 303.570312 178.507812 C 303.738281 178.910156 303.863281 179.324219 303.949219 179.753906 C 304.035156 180.179688 304.078125 180.613281 304.078125 181.046875 Z M 304.070312 211.457031 C 304.070312 211.894531 304.03125 212.324219 303.945312 212.753906 C 303.859375 213.179688 303.734375 213.59375 303.566406 213.996094 C 303.398438 214.398438 303.195312 214.78125 302.953125 215.144531 C 302.710938 215.507812 302.4375 215.84375 302.128906 216.152344 C 301.820312 216.457031 301.484375 216.734375 301.121094 216.976562 C 300.757812 217.21875 300.375 217.421875 299.972656 217.589844 C 299.570312 217.753906 299.15625 217.878906 298.730469 217.964844 C 298.300781 218.050781 297.871094 218.09375 297.433594 218.09375 L 118.335938 218.09375 C 117.898438 218.09375 117.46875 218.050781 117.039062 217.964844 C 116.609375 217.882812 116.195312 217.753906 115.789062 217.589844 C 115.386719 217.421875 115.003906 217.21875 114.640625 216.976562 C 114.277344 216.734375 113.941406 216.457031 113.632812 216.148438 C 113.320312 215.839844 113.046875 215.503906 112.804688 215.140625 C 112.558594 214.777344 112.355469 214.394531 112.1875 213.992188 C 112.019531 213.589844 111.894531 213.171875 111.808594 212.742188 C 111.722656 212.316406 111.679688 211.882812 111.679688 211.445312 C 111.679688 211.007812 111.722656 210.578125 111.808594 210.148438 C 111.894531 209.71875 112.019531 209.304688 112.1875 208.902344 C 112.355469 208.496094 112.558594 208.113281 112.804688 207.75 C 113.046875 207.386719 113.320312 207.050781 113.632812 206.742188 C 113.941406 206.433594 114.277344 206.160156 114.640625 205.917969 C 115.003906 205.675781 115.386719 205.46875 115.789062 205.304688 C 116.195312 205.136719 116.609375 205.011719 117.039062 204.925781 C 117.46875 204.839844 117.898438 204.800781 118.335938 204.800781 L 297.4375 204.800781 C 297.875 204.800781 298.308594 204.84375 298.738281 204.929688 C 299.164062 205.015625 299.582031 205.140625 299.984375 205.308594 C 300.386719 205.476562 300.773438 205.679688 301.136719 205.925781 C 301.496094 206.167969 301.832031 206.445312 302.140625 206.753906 C 302.449219 207.0625 302.726562 207.402344 302.96875 207.765625 C 303.210938 208.128906 303.414062 208.511719 303.578125 208.917969 C 303.746094 209.320312 303.871094 209.738281 303.953125 210.167969 C 304.039062 210.597656 304.078125 211.027344 304.078125 211.464844 Z M 304.070312 241.890625 C 304.070312 242.324219 304.03125 242.757812 303.945312 243.183594 C 303.859375 243.609375 303.734375 244.027344 303.566406 244.429688 C 303.398438 244.832031 303.195312 245.214844 302.953125 245.574219 C 302.710938 245.9375 302.4375 246.273438 302.128906 246.582031 C 301.820312 246.890625 301.484375 247.164062 301.121094 247.40625 C 300.757812 247.648438 300.375 247.851562 299.972656 248.019531 C 299.570312 248.1875 299.15625 248.3125 298.730469 248.394531 C 298.300781 248.480469 297.871094 248.523438 297.433594 248.523438 L 118.335938 248.523438 C 117.898438 248.523438 117.46875 248.480469 117.039062 248.394531 C 116.613281 248.308594 116.195312 248.183594 115.792969 248.015625 C 115.390625 247.851562 115.007812 247.644531 114.644531 247.402344 C 114.28125 247.160156 113.945312 246.886719 113.636719 246.578125 C 113.328125 246.269531 113.054688 245.933594 112.808594 245.570312 C 112.566406 245.207031 112.363281 244.824219 112.195312 244.421875 C 112.027344 244.015625 111.902344 243.601562 111.816406 243.171875 C 111.734375 242.746094 111.691406 242.3125 111.691406 241.878906 C 111.691406 241.441406 111.734375 241.007812 111.816406 240.582031 C 111.902344 240.152344 112.027344 239.738281 112.195312 239.332031 C 112.363281 238.929688 112.566406 238.546875 112.808594 238.183594 C 113.054688 237.820312 113.328125 237.484375 113.636719 237.175781 C 113.945312 236.867188 114.28125 236.59375 114.644531 236.351562 C 115.007812 236.109375 115.390625 235.902344 115.792969 235.738281 C 116.195312 235.570312 116.613281 235.445312 117.039062 235.359375 C 117.46875 235.273438 117.898438 235.230469 118.335938 235.230469 L 297.4375 235.230469 C 297.875 235.230469 298.308594 235.273438 298.738281 235.359375 C 299.167969 235.445312 299.582031 235.570312 299.988281 235.738281 C 300.390625 235.90625 300.777344 236.113281 301.140625 236.359375 C 301.503906 236.601562 301.835938 236.878906 302.144531 237.1875 C 302.453125 237.5 302.730469 237.835938 302.972656 238.203125 C 303.214844 238.566406 303.417969 238.953125 303.582031 239.355469 C 303.75 239.761719 303.871094 240.179688 303.957031 240.609375 C 304.039062 241.039062 304.078125 241.472656 304.078125 241.910156 Z M 304.070312 272.316406 C 304.070312 272.75 304.03125 273.183594 303.945312 273.609375 C 303.859375 274.039062 303.734375 274.453125 303.566406 274.855469 C 303.398438 275.257812 303.195312 275.640625 302.953125 276.003906 C 302.710938 276.367188 302.4375 276.703125 302.128906 277.011719 C 301.820312 277.316406 301.484375 277.59375 301.121094 277.835938 C 300.757812 278.078125 300.378906 278.28125 299.972656 278.449219 C 299.570312 278.617188 299.15625 278.742188 298.730469 278.828125 C 298.300781 278.910156 297.871094 278.953125 297.433594 278.953125 L 239.996094 278.953125 C 239.558594 278.953125 239.128906 278.910156 238.699219 278.828125 C 238.269531 278.742188 237.855469 278.613281 237.453125 278.449219 C 237.050781 278.28125 236.667969 278.078125 236.304688 277.832031 C 235.941406 277.589844 235.605469 277.316406 235.296875 277.007812 C 234.988281 276.699219 234.710938 276.363281 234.46875 276 C 234.226562 275.636719 234.023438 275.253906 233.855469 274.851562 C 233.6875 274.449219 233.5625 274.03125 233.476562 273.605469 C 233.390625 273.175781 233.351562 272.746094 233.351562 272.308594 C 233.351562 271.871094 233.390625 271.4375 233.476562 271.011719 C 233.5625 270.582031 233.6875 270.167969 233.855469 269.765625 C 234.023438 269.363281 234.226562 268.976562 234.46875 268.617188 C 234.710938 268.253906 234.988281 267.917969 235.296875 267.609375 C 235.605469 267.300781 235.941406 267.023438 236.304688 266.78125 C 236.667969 266.539062 237.050781 266.335938 237.453125 266.167969 C 237.855469 266 238.269531 265.875 238.699219 265.789062 C 239.128906 265.703125 239.558594 265.660156 239.996094 265.660156 L 297.4375 265.660156 C 297.875 265.660156 298.308594 265.703125 298.738281 265.789062 C 299.167969 265.875 299.582031 266 299.988281 266.167969 C 300.390625 266.335938 300.773438 266.542969 301.136719 266.785156 C 301.5 267.03125 301.835938 267.308594 302.144531 267.617188 C 302.453125 267.929688 302.730469 268.265625 302.972656 268.628906 C 303.214844 268.996094 303.417969 269.378906 303.582031 269.785156 C 303.75 270.1875 303.871094 270.605469 303.957031 271.035156 C 304.039062 271.464844 304.078125 271.898438 304.078125 272.335938 Z M 304.070312 272.316406 " fill-opacity="1" fill-rule="nonzero"/></g></svg>