<svg xmlns="http://www.w3.org/2000/svg" xmlns:xlink="http://www.w3.org/1999/xlink" width="500" zoomAndPan="magnify" viewBox="0 0 375 374.999991" height="500" preserveAspectRatio="xMidYMid meet" version="1.0"><defs><clipPath id="a7bc29531e"><path d="M 18 0 L 355.5 0 L 355.5 371.25 L 18 371.25 Z M 18 0 " clip-rule="nonzero"/></clipPath></defs><path fill="#356bb4" d="M 315.253906 178.644531 C 313.242188 178.644531 311.703125 176.988281 311.703125 175.09375 L 311.703125 113.585938 L 225.59375 27.589844 L 83.527344 27.589844 C 70.515625 27.589844 59.988281 38.117188 59.988281 51.128906 L 59.988281 175.09375 C 59.988281 177.105469 58.332031 178.644531 56.441406 178.644531 C 54.546875 178.644531 52.894531 176.988281 52.894531 175.09375 L 52.894531 51.128906 C 52.894531 34.214844 66.730469 20.375 83.648438 20.375 L 227.246094 20.375 C 228.195312 20.375 229.140625 20.730469 229.730469 21.441406 L 317.855469 109.5625 C 318.566406 110.273438 318.921875 111.21875 318.921875 112.046875 L 318.921875 175.09375 C 318.800781 176.988281 317.265625 178.644531 315.253906 178.644531 Z M 288.046875 351.222656 L 83.410156 351.222656 C 66.496094 351.222656 52.65625 337.382812 52.65625 320.46875 L 52.65625 283.210938 C 52.65625 281.199219 54.3125 279.660156 56.203125 279.660156 C 58.097656 279.660156 59.753906 281.316406 59.753906 283.210938 L 59.753906 320.46875 C 59.753906 333.480469 70.28125 344.007812 83.292969 344.007812 L 287.929688 344.007812 C 300.941406 344.007812 311.46875 333.480469 311.46875 320.46875 L 311.46875 283.210938 C 311.46875 281.199219 313.125 279.660156 315.015625 279.660156 C 317.027344 279.660156 318.566406 281.316406 318.566406 283.210938 L 318.566406 320.46875 C 318.800781 337.503906 305.082031 351.222656 288.046875 351.222656 Z M 288.046875 351.222656 " fill-opacity="1" fill-rule="evenodd"/><path fill="#356bb4" d="M 315.253906 115.597656 L 257.410156 115.597656 C 238.839844 115.597656 223.582031 100.457031 223.582031 81.765625 L 223.582031 23.921875 C 223.582031 21.914062 225.238281 20.375 227.128906 20.375 C 229.023438 20.375 230.679688 22.03125 230.679688 23.921875 L 230.679688 81.765625 C 230.679688 96.433594 242.625 108.378906 257.175781 108.378906 L 315.015625 108.378906 C 317.027344 108.378906 318.566406 110.035156 318.566406 111.929688 C 318.800781 113.941406 317.265625 115.597656 315.253906 115.597656 Z M 315.253906 115.597656 " fill-opacity="1" fill-rule="evenodd"/><path fill="#356bb4" d="M 347.664062 305.566406 C 345.652344 305.566406 344.117188 303.910156 344.117188 302.015625 L 344.117188 195.085938 C 344.117188 185.976562 336.664062 178.644531 327.671875 178.644531 L 44.019531 178.644531 C 34.914062 178.644531 27.578125 185.976562 27.578125 195.085938 L 27.578125 302.015625 C 27.578125 304.027344 25.921875 305.566406 24.03125 305.566406 C 22.019531 305.566406 20.480469 303.910156 20.480469 302.015625 L 20.480469 195.085938 C 20.480469 182.074219 31.128906 171.425781 44.140625 171.425781 L 327.792969 171.425781 C 340.804688 171.425781 351.449219 182.074219 351.449219 195.085938 L 351.449219 301.898438 C 351.210938 303.910156 349.675781 305.566406 347.664062 305.566406 Z M 347.664062 305.566406 " fill-opacity="1" fill-rule="evenodd"/><path fill="#356bb4" d="M 329.09375 324.136719 L 315.253906 324.136719 C 313.242188 324.136719 311.703125 322.480469 311.703125 320.585938 C 311.703125 318.578125 313.359375 317.039062 315.253906 317.039062 L 329.09375 317.039062 C 337.375 317.039062 344.117188 310.296875 344.117188 302.015625 C 344.117188 293.738281 337.375 286.996094 329.09375 286.996094 L 42.601562 286.996094 C 34.320312 286.996094 27.578125 293.738281 27.578125 302.015625 C 27.578125 310.296875 34.320312 317.039062 42.601562 317.039062 L 56.441406 317.039062 C 58.453125 317.039062 59.988281 318.695312 59.988281 320.585938 C 59.988281 322.597656 58.332031 324.136719 56.441406 324.136719 L 42.601562 324.136719 C 30.300781 324.136719 20.363281 314.199219 20.363281 301.898438 C 20.363281 289.597656 30.300781 279.660156 42.601562 279.660156 L 329.09375 279.660156 C 341.394531 279.660156 351.332031 289.597656 351.332031 301.898438 C 351.210938 314.199219 341.277344 324.136719 329.09375 324.136719 Z M 329.09375 324.136719 " fill-opacity="1" fill-rule="evenodd"/><path fill="#356bb4" d="M 286.746094 144.457031 L 84.710938 144.457031 C 82.699219 144.457031 81.164062 142.800781 81.164062 140.910156 C 81.164062 138.898438 82.820312 137.359375 84.710938 137.359375 L 286.863281 137.359375 C 288.875 137.359375 290.414062 139.015625 290.414062 140.910156 C 290.414062 142.800781 288.875 144.457031 286.746094 144.457031 Z M 286.746094 144.457031 " fill-opacity="1" fill-rule="evenodd"/><path fill="#356bb4" d="M 202.878906 107.789062 L 84.710938 107.789062 C 82.699219 107.789062 81.164062 106.132812 81.164062 104.242188 C 81.164062 102.347656 82.820312 100.691406 84.710938 100.691406 L 202.878906 100.691406 C 204.890625 100.691406 206.429688 102.347656 206.429688 104.242188 C 206.546875 106.132812 204.890625 107.789062 202.878906 107.789062 Z M 202.878906 107.789062 " fill-opacity="1" fill-rule="evenodd"/><path fill="#356bb4" d="M 202.878906 71 L 84.710938 71 C 82.699219 71 81.164062 69.347656 81.164062 67.453125 C 81.164062 65.5625 82.820312 63.90625 84.710938 63.90625 L 202.878906 63.90625 C 204.890625 63.90625 206.429688 65.5625 206.429688 67.453125 C 206.546875 69.464844 204.890625 71 202.878906 71 Z M 202.878906 71 " fill-opacity="1" fill-rule="evenodd"/><path fill="#356bb4" d="M 169.878906 255.648438 L 189.75 255.648438 C 193.890625 255.648438 196.492188 251.625 198.03125 248.3125 C 200.277344 243.347656 201.578125 236.367188 201.578125 229.152344 C 201.578125 216.257812 197.441406 202.65625 189.632812 202.65625 L 169.761719 202.65625 Z M 189.75 262.980469 L 166.210938 262.980469 C 164.199219 262.980469 162.664062 261.324219 162.664062 259.433594 L 162.664062 199.105469 C 162.664062 197.097656 164.320312 195.558594 166.210938 195.558594 L 189.75 195.558594 C 203 195.558594 208.796875 212.472656 208.796875 229.386719 C 208.796875 237.785156 207.257812 245.710938 204.65625 251.625 C 201.34375 258.84375 196.019531 262.980469 189.75 262.980469 Z M 189.75 262.980469 " fill-opacity="1" fill-rule="evenodd"/><path fill="#356bb4" d="M 227.011719 262.980469 C 225 262.980469 223.460938 261.324219 223.460938 259.433594 L 223.460938 199.105469 C 223.460938 197.097656 225.117188 195.558594 227.011719 195.558594 L 266.046875 195.558594 C 268.058594 195.558594 269.59375 197.214844 269.59375 199.105469 C 269.59375 201.117188 267.9375 202.65625 266.046875 202.65625 L 230.679688 202.65625 L 230.679688 259.433594 C 230.558594 261.324219 229.023438 262.980469 227.011719 262.980469 Z M 227.011719 262.980469 " fill-opacity="1" fill-rule="evenodd"/><path fill="#356bb4" d="M 265.929688 232.699219 L 226.894531 232.699219 C 224.882812 232.699219 223.34375 231.042969 223.34375 229.152344 C 223.34375 227.140625 225 225.601562 226.894531 225.601562 L 265.929688 225.601562 C 267.9375 225.601562 269.476562 227.257812 269.476562 229.152344 C 269.59375 231.164062 268.058594 232.699219 265.929688 232.699219 Z M 265.929688 232.699219 " fill-opacity="1" fill-rule="evenodd"/><path fill="#356bb4" d="M 114.636719 225.484375 L 134.984375 225.484375 C 141.371094 225.484375 146.457031 220.398438 146.457031 214.011719 C 146.457031 207.625 141.371094 202.535156 134.984375 202.535156 L 114.636719 202.535156 Z M 134.984375 232.699219 L 111.089844 232.699219 C 109.078125 232.699219 107.542969 231.042969 107.542969 229.152344 L 107.542969 198.988281 C 107.542969 196.976562 109.199219 195.441406 111.089844 195.441406 L 134.984375 195.441406 C 145.273438 195.441406 153.671875 203.839844 153.671875 214.128906 C 153.671875 224.421875 145.273438 232.699219 134.984375 232.699219 Z M 134.984375 232.699219 " fill-opacity="1" fill-rule="evenodd"/><path fill="#356bb4" d="M 110.972656 262.980469 C 108.960938 262.980469 107.421875 261.324219 107.421875 259.433594 L 107.421875 229.269531 C 107.421875 227.257812 109.078125 225.722656 110.972656 225.722656 C 112.863281 225.722656 114.519531 227.378906 114.519531 229.269531 L 114.519531 259.433594 C 114.636719 261.324219 112.984375 262.980469 110.972656 262.980469 Z M 110.972656 262.980469 " fill-opacity="1" fill-rule="evenodd"/><g clip-path="url(#a7bc29531e)"><path fill="#356bb4" d="M 185.847656 475.664062 C 146.695312 475.664062 108.722656 468.09375 73 452.832031 C 38.460938 438.164062 7.46875 417.347656 -19.144531 390.730469 C -45.757812 364.117188 -66.695312 333.125 -81.246094 298.585938 C -96.265625 262.863281 -104.074219 225.011719 -104.074219 185.859375 C -104.074219 146.707031 -96.503906 108.734375 -81.246094 73.011719 C -66.578125 38.472656 -45.757812 7.480469 -19.144531 -19.132812 C 7.46875 -45.746094 38.460938 -66.683594 73 -81.234375 C 108.722656 -96.375 146.695312 -104.0625 185.847656 -104.0625 C 225 -104.0625 262.96875 -96.492188 298.691406 -81.234375 C 333.113281 -66.683594 364.222656 -45.746094 390.839844 -19.132812 C 417.453125 7.480469 438.390625 38.472656 452.941406 73.011719 C 468.082031 108.734375 475.769531 146.707031 475.769531 185.859375 C 475.769531 225.011719 468.199219 262.980469 452.941406 298.703125 C 438.390625 333.125 417.453125 364.234375 390.839844 390.851562 C 364.222656 417.464844 333.234375 438.402344 298.691406 452.949219 C 262.851562 467.972656 224.882812 475.664062 185.847656 475.664062 Z M 185.847656 -96.375 C 30.300781 -96.375 -96.265625 30.3125 -96.265625 185.859375 C -96.265625 341.40625 30.300781 468.09375 185.964844 468.09375 C 341.632812 468.09375 468.199219 341.523438 468.199219 185.859375 C 468.199219 30.191406 341.394531 -96.375 185.847656 -96.375 Z M 185.847656 -96.375 " fill-opacity="1" fill-rule="nonzero"/></g></svg>