<svg xmlns="http://www.w3.org/2000/svg" xmlns:xlink="http://www.w3.org/1999/xlink" width="500" zoomAndPan="magnify" viewBox="0 0 375 374.999991" height="500" preserveAspectRatio="xMidYMid meet" version="1.0"><defs><clipPath id="0767fe1937"><path d="M 0 0 L 374.527344 0 L 374.527344 374.527344 L 0 374.527344 Z M 0 0 " clip-rule="nonzero"/></clipPath><clipPath id="e298b1f1c0"><path d="M 187.496094 0 C 83.945312 0 0 83.945312 0 187.496094 C 0 291.046875 83.945312 374.992188 187.496094 374.992188 C 291.046875 374.992188 374.992188 291.046875 374.992188 187.496094 C 374.992188 83.945312 291.046875 0 187.496094 0 Z M 187.496094 0 " clip-rule="nonzero"/></clipPath><clipPath id="2585b0e5c8"><path d="M 71.746094 131 L 260 131 L 260 262 L 71.746094 262 Z M 71.746094 131 " clip-rule="nonzero"/></clipPath><clipPath id="194da00d8c"><path d="M 122 254 L 166 254 L 166 297.261719 L 122 297.261719 Z M 122 254 " clip-rule="nonzero"/></clipPath><clipPath id="161f271514"><path d="M 216 254 L 260 254 L 260 297.261719 L 216 297.261719 Z M 216 254 " clip-rule="nonzero"/></clipPath><clipPath id="4490e19de9"><path d="M 190 77.390625 L 302.796875 77.390625 L 302.796875 200 L 190 200 Z M 190 77.390625 " clip-rule="nonzero"/></clipPath></defs><g clip-path="url(#0767fe1937)"><g clip-path="url(#e298b1f1c0)"><path stroke-linecap="butt" transform="matrix(1.863325, 0, 0, 1.863325, 0.0000045, -0.00000000000013756)" fill="none" stroke-linejoin="miter" d="M 100.624485 0.000000000000073825 C 45.051358 0.000000000000073825 -0.00000241504 45.05136 -0.00000241504 100.624487 C -0.00000241504 156.197614 45.051358 201.248974 100.624485 201.248974 C 156.197612 201.248974 201.248972 156.197614 201.248972 100.624487 C 201.248972 45.05136 156.197612 0.000000000000073825 100.624485 0.000000000000073825 Z M 100.624485 0.000000000000073825 " stroke="#507dbb" stroke-width="4.025063" stroke-opacity="1" stroke-miterlimit="4"/></g></g><g clip-path="url(#2585b0e5c8)"><path fill="#507dbb" d="M 248.640625 261.285156 L 129.617188 261.285156 C 127.976562 261.285156 126.539062 260.179688 126.121094 258.589844 L 98.273438 152.773438 L 82.597656 152.773438 C 76.613281 152.773438 71.746094 147.90625 71.746094 141.925781 C 71.746094 135.941406 76.613281 131.074219 82.597656 131.074219 L 115.527344 131.074219 C 117.171875 131.074219 118.609375 132.179688 119.027344 133.769531 L 146.875 239.585938 L 248.640625 239.585938 C 254.453125 239.585938 259.214844 244.132812 259.480469 249.9375 C 259.617188 252.929688 258.554688 255.765625 256.488281 257.929688 C 254.421875 260.09375 251.632812 261.285156 248.640625 261.285156 Z M 132.40625 254.050781 L 248.640625 254.050781 C 249.640625 254.050781 250.566406 253.65625 251.257812 252.933594 C 251.945312 252.210938 252.300781 251.265625 252.253906 250.269531 C 252.167969 248.335938 250.578125 246.816406 248.640625 246.816406 L 144.085938 246.816406 C 142.445312 246.816406 141.007812 245.710938 140.589844 244.121094 L 112.738281 138.308594 L 82.597656 138.308594 C 80.601562 138.308594 78.980469 139.929688 78.980469 141.925781 C 78.980469 143.917969 80.601562 145.539062 82.597656 145.539062 L 101.058594 145.539062 C 102.703125 145.539062 104.140625 146.648438 104.558594 148.238281 Z M 132.40625 254.050781 " fill-opacity="1" fill-rule="nonzero"/></g><g clip-path="url(#194da00d8c)"><path fill="#507dbb" d="M 144.085938 297.457031 C 132.121094 297.457031 122.382812 287.722656 122.382812 275.753906 C 122.382812 263.789062 132.121094 254.050781 144.085938 254.050781 C 156.054688 254.050781 165.789062 263.789062 165.789062 275.753906 C 165.789062 287.722656 156.054688 297.457031 144.085938 297.457031 Z M 144.085938 261.285156 C 136.109375 261.285156 129.617188 267.777344 129.617188 275.753906 C 129.617188 283.730469 136.109375 290.222656 144.085938 290.222656 C 152.0625 290.222656 158.554688 283.730469 158.554688 275.753906 C 158.554688 267.777344 152.0625 261.285156 144.085938 261.285156 Z M 144.085938 261.285156 " fill-opacity="1" fill-rule="nonzero"/></g><g clip-path="url(#161f271514)"><path fill="#507dbb" d="M 238.128906 297.457031 C 226.160156 297.457031 216.425781 287.722656 216.425781 275.753906 C 216.425781 263.789062 226.160156 254.050781 238.128906 254.050781 C 250.097656 254.050781 259.832031 263.789062 259.832031 275.753906 C 259.832031 287.722656 250.097656 297.457031 238.128906 297.457031 Z M 238.128906 261.285156 C 230.152344 261.285156 223.660156 267.777344 223.660156 275.753906 C 223.660156 283.730469 230.152344 290.222656 238.128906 290.222656 C 246.105469 290.222656 252.597656 283.730469 252.597656 275.753906 C 252.597656 267.777344 246.105469 261.285156 238.128906 261.285156 Z M 238.128906 261.285156 " fill-opacity="1" fill-rule="nonzero"/></g><path fill="#507dbb" d="M 252.597656 232.351562 L 140.28125 232.351562 C 138.28125 232.351562 136.664062 230.730469 136.664062 228.734375 C 136.664062 226.734375 138.28125 225.117188 140.28125 225.117188 L 249.578125 225.117188 L 256.273438 188.292969 C 256.628906 186.328125 258.511719 185.027344 260.476562 185.382812 C 262.445312 185.742188 263.746094 187.621094 263.390625 189.589844 L 256.15625 229.378906 C 255.84375 231.101562 254.34375 232.351562 252.597656 232.351562 Z M 252.597656 232.351562 " fill-opacity="1" fill-rule="nonzero"/><path fill="#507dbb" d="M 198.894531 158.707031 L 120.898438 158.707031 C 118.898438 158.707031 117.28125 157.089844 117.28125 155.089844 C 117.28125 153.09375 118.898438 151.472656 120.898438 151.472656 L 198.894531 151.472656 C 200.890625 151.472656 202.511719 153.09375 202.511719 155.089844 C 202.511719 157.089844 200.890625 158.707031 198.894531 158.707031 Z M 198.894531 158.707031 " fill-opacity="1" fill-rule="nonzero"/><path fill="#507dbb" d="M 211.046875 174.476562 L 176.640625 174.476562 C 174.640625 174.476562 173.023438 172.859375 173.023438 170.859375 C 173.023438 168.863281 174.640625 167.242188 176.640625 167.242188 L 211.046875 167.242188 C 213.042969 167.242188 214.664062 168.863281 214.664062 170.859375 C 214.664062 172.859375 213.042969 174.476562 211.046875 174.476562 Z M 211.046875 174.476562 " fill-opacity="1" fill-rule="nonzero"/><path fill="#507dbb" d="M 234.371094 192.5625 L 183.875 192.5625 C 181.875 192.5625 180.257812 190.945312 180.257812 188.945312 C 180.257812 186.949219 181.875 185.328125 183.875 185.328125 L 234.371094 185.328125 C 236.371094 185.328125 237.988281 186.949219 237.988281 188.945312 C 237.988281 190.945312 236.371094 192.5625 234.371094 192.5625 Z M 234.371094 192.5625 " fill-opacity="1" fill-rule="nonzero"/><path fill="#507dbb" d="M 259.832031 192.5625 L 259.828125 192.5625 C 257.828125 192.5625 256.210938 190.945312 256.210938 188.945312 C 256.210938 186.949219 257.828125 185.328125 259.828125 185.328125 C 261.824219 185.328125 263.445312 186.949219 263.445312 188.945312 C 263.445312 190.945312 261.828125 192.5625 259.832031 192.5625 Z M 259.832031 192.5625 " fill-opacity="1" fill-rule="nonzero"/><path fill="#507dbb" d="M 255.882812 214.265625 L 191.109375 214.265625 C 189.109375 214.265625 187.492188 212.644531 187.492188 210.648438 C 187.492188 208.652344 189.109375 207.03125 191.109375 207.03125 L 255.882812 207.03125 C 257.882812 207.03125 259.5 208.652344 259.5 210.648438 C 259.5 212.644531 257.882812 214.265625 255.882812 214.265625 Z M 255.882812 214.265625 " fill-opacity="1" fill-rule="nonzero"/><g clip-path="url(#4490e19de9)"><path fill="#507dbb" d="M 247.097656 199.796875 C 246.558594 199.796875 246.015625 199.675781 245.515625 199.433594 C 245.007812 199.183594 232.886719 193.246094 220.128906 183.484375 C 205.957031 172.640625 196.832031 161.601562 193.011719 150.667969 C 191.652344 146.796875 190.964844 142.902344 190.964844 139.09375 L 190.964844 102.207031 C 190.964844 101.230469 191.359375 100.292969 192.058594 99.613281 C 192.761719 98.933594 193.699219 98.5625 194.683594 98.589844 C 204.007812 98.859375 213.144531 97.199219 221.867188 93.664062 C 230.238281 90.273438 237.882812 85.289062 244.59375 78.839844 C 245.992188 77.496094 248.207031 77.496094 249.605469 78.839844 C 256.316406 85.285156 263.960938 90.273438 272.332031 93.664062 C 281.054688 97.199219 290.191406 98.855469 299.515625 98.589844 C 300.503906 98.558594 301.4375 98.933594 302.140625 99.613281 C 302.839844 100.292969 303.234375 101.230469 303.234375 102.207031 L 303.234375 139.09375 C 303.234375 142.90625 302.546875 146.800781 301.1875 150.671875 C 297.367188 161.601562 288.242188 172.640625 274.070312 183.484375 C 261.3125 193.246094 249.191406 199.183594 248.683594 199.433594 C 248.183594 199.675781 247.640625 199.796875 247.097656 199.796875 Z M 198.195312 105.835938 L 198.195312 139.09375 C 198.195312 142.085938 198.75 145.175781 199.835938 148.277344 C 203.140625 157.722656 211.675781 167.910156 224.523438 177.738281 C 234.097656 185.0625 243.464844 190.21875 247.097656 192.121094 C 250.738281 190.214844 260.125 185.046875 269.675781 177.738281 C 282.523438 167.910156 291.058594 157.722656 294.359375 148.28125 C 295.449219 145.175781 296.003906 142.085938 296.003906 139.09375 L 296.003906 105.835938 C 286.96875 105.644531 278.109375 103.8125 269.613281 100.371094 C 261.417969 97.050781 253.855469 92.34375 247.097656 86.367188 C 240.339844 92.347656 232.78125 97.050781 224.585938 100.371094 C 216.089844 103.8125 207.230469 105.644531 198.195312 105.835938 Z M 198.195312 105.835938 " fill-opacity="1" fill-rule="nonzero"/></g><path fill="#507dbb" d="M 236.96875 160.007812 C 236.941406 160.007812 236.910156 160.007812 236.878906 160.007812 C 235.910156 159.984375 234.992188 159.570312 234.328125 158.863281 L 217.402344 140.777344 C 216.039062 139.320312 216.113281 137.03125 217.570312 135.667969 C 219.03125 134.300781 221.320312 134.375 222.683594 135.835938 L 237.101562 151.242188 L 268.222656 121.234375 C 269.660156 119.847656 271.949219 119.890625 273.335938 121.328125 C 274.722656 122.765625 274.679688 125.054688 273.242188 126.441406 L 239.480469 158.996094 C 238.808594 159.648438 237.90625 160.007812 236.96875 160.007812 Z M 236.96875 160.007812 " fill-opacity="1" fill-rule="nonzero"/></svg>